<svg width="99" height="105" viewBox="0 0 99 105" fill="none" xmlns="http://www.w3.org/2000/svg">
<g filter="url(#filter0_d_783_1469)">
<path fill-rule="evenodd" clip-rule="evenodd" d="M50.1596 19.0004C67.9251 19.2524 82.8057 33.7192 91.4621 47.7249C93.1457 50.4488 93.1872 53.8579 91.6198 56.6503C90.6829 58.3195 89.5742 60.1713 88.4944 61.6795C87.2049 63.48 85.8484 65.2341 84.4233 66.9305C83.4069 68.1383 82.357 69.3145 81.2682 70.4572C71.5372 80.6768 57.5624 88.3007 42.8052 85.3407C28.0302 82.3767 15.7091 70.6743 7.53548 57.3322C5.85883 54.5953 5.81755 51.1776 7.39445 48.3821C8.33545 46.7139 9.44877 44.8648 10.5335 43.3603C11.7338 41.6936 12.9936 40.0715 14.3129 38.4976C15.3237 37.2917 16.3717 36.1155 17.4549 34.9728C26.0524 25.9126 37.0841 18.9372 50.1596 19.0004ZM50.0909 26.4329C39.1466 26.392 30.0455 32.5033 22.8453 40.09C21.8661 41.1213 20.9222 42.1841 20.008 43.273C18.8058 44.7075 17.6575 46.1884 16.5631 47.7064C15.4686 49.2227 14.3463 51.1365 13.4563 52.7624C20.5431 64.671 31.1808 75.4277 44.2675 78.0532C56.4624 80.5003 67.8433 73.7777 75.8852 65.3325C76.8682 64.3013 77.8177 63.2366 78.7356 62.1459C80.0363 60.5981 81.2738 58.9982 82.45 57.3538C83.5388 55.832 84.6593 53.9144 85.5474 52.2867C78.193 39.9767 65.6099 26.6744 50.0909 26.4329Z" fill="white"/>
<path fill-rule="evenodd" clip-rule="evenodd" d="M49.5064 37.625C57.7285 37.625 64.4047 44.3012 64.4047 52.5215C64.4047 60.7437 57.7285 67.418 49.5064 67.418C41.2861 67.418 34.6099 60.7437 34.6099 52.5215C34.6099 44.3012 41.2861 37.625 49.5064 37.625ZM49.5064 45.0742C53.6184 45.0742 56.9556 48.4114 56.9556 52.5215C56.9556 56.6335 53.6184 59.9707 49.5064 59.9707C45.3962 59.9707 42.059 56.6335 42.059 52.5215C42.059 48.4114 45.3962 45.0742 49.5064 45.0742Z" fill="white"/>
<path d="M79.5 10.5L20 94.5" stroke="white" stroke-width="8" stroke-linecap="round"/>
</g>
<defs>
<filter id="filter0_d_783_1469" x="0.244141" y="0.5" width="98.5171" height="104" filterUnits="userSpaceOnUse" color-interpolation-filters="sRGB">
<feFlood flood-opacity="0" result="BackgroundImageFix"/>
<feColorMatrix in="SourceAlpha" type="matrix" values="0 0 0 0 0 0 0 0 0 0 0 0 0 0 0 0 0 0 127 0" result="hardAlpha"/>
<feOffset/>
<feGaussianBlur stdDeviation="3"/>
<feComposite in2="hardAlpha" operator="out"/>
<feColorMatrix type="matrix" values="0 0 0 0 1 0 0 0 0 1 0 0 0 0 1 0 0 0 0.77 0"/>
<feBlend mode="normal" in2="BackgroundImageFix" result="effect1_dropShadow_783_1469"/>
<feBlend mode="normal" in="SourceGraphic" in2="effect1_dropShadow_783_1469" result="shape"/>
</filter>
</defs>
</svg>
