<svg width="64" height="50" viewBox="0 0 64 50" fill="none" xmlns="http://www.w3.org/2000/svg">
<g filter="url(#filter0_d_215_11)">
<path d="M47.1523 41.0002H51.6725C53.6457 41.0002 55.2452 39.4006 55.2452 37.4275C55.2452 36.0743 54.4807 34.8372 53.2703 34.2321L32.1226 23.6582L10.9749 34.2321C9.76455 34.8372 9 36.0743 9 37.4275C9 39.4006 10.5995 41.0002 12.5726 41.0002H47.1523Z" stroke="white" stroke-width="5" stroke-linecap="round" stroke-linejoin="round"/>
<path fill-rule="evenodd" clip-rule="evenodd" d="M25.8696 13.2529C25.8696 9.79949 28.6692 7 32.1225 7C35.5758 7 38.3754 9.79949 38.3754 13.2529C38.3754 14.2365 37.9686 15.4691 37.5385 16.5555C37.0788 17.7167 36.4759 18.9874 35.8873 20.1491C35.2963 21.3157 34.7071 22.3972 34.2666 23.1856C34.046 23.5804 33.8619 23.9032 33.7324 24.1281C33.6677 24.2405 33.6166 24.3286 33.5814 24.3891L33.5407 24.4587L33.526 24.4837C33.5259 24.4839 33.5256 24.4845 32.1225 23.658L33.5256 24.4845C33.0691 25.2594 32.071 25.5175 31.2961 25.0611C30.5212 24.6047 30.2631 23.6066 30.7194 22.8317C30.7194 22.8318 30.7194 22.8317 30.7194 22.8317L30.7308 22.8122L30.7675 22.7494C30.8 22.6936 30.8483 22.6105 30.91 22.5033C31.0334 22.2889 31.2106 21.9783 31.4236 21.5971C31.8502 20.8336 32.4171 19.7928 32.9822 18.6773C33.5498 17.5569 34.103 16.386 34.5104 15.3568C34.9474 14.2528 35.1187 13.5462 35.1187 13.2529C35.1187 11.5981 33.7772 10.2567 32.1225 10.2567C30.4678 10.2567 29.1263 11.5981 29.1263 13.2529C29.1263 14.1522 28.3973 14.8812 27.498 14.8812C26.5987 14.8812 25.8696 14.1522 25.8696 13.2529Z" fill="white"/>
<path d="M30.7194 22.8317C30.2631 23.6066 30.5212 24.6047 31.2961 25.0611C32.071 25.5175 33.0691 25.2594 33.5256 24.4845L32.1225 23.658C33.5256 24.4845 33.5259 24.4839 33.526 24.4837L33.5407 24.4587L33.5814 24.3891C33.6166 24.3286 33.6677 24.2405 33.7324 24.1281C33.8619 23.9032 34.046 23.5804 34.2666 23.1856C34.7071 22.3972 35.2963 21.3157 35.8873 20.1491C36.4759 18.9874 37.0788 17.7167 37.5385 16.5555C37.9686 15.4691 38.3754 14.2365 38.3754 13.2529C38.3754 9.79949 35.5758 7 32.1225 7C28.6692 7 25.8696 9.79949 25.8696 13.2529C25.8696 14.1522 26.5987 14.8812 27.498 14.8812C28.3973 14.8812 29.1263 14.1522 29.1263 13.2529C29.1263 11.5981 30.4678 10.2567 32.1225 10.2567C33.7772 10.2567 35.1187 11.5981 35.1187 13.2529C35.1187 13.5462 34.9474 14.2528 34.5104 15.3568C34.103 16.386 33.5498 17.5569 32.9822 18.6773C32.4171 19.7928 31.8502 20.8336 31.4236 21.5971C31.2106 21.9783 31.0334 22.2889 30.91 22.5033C30.8483 22.6105 30.8 22.6936 30.7675 22.7494L30.7308 22.8122L30.7194 22.8317ZM30.7194 22.8317C30.7194 22.8318 30.7194 22.8317 30.7194 22.8317Z" stroke="white" stroke-width="2" stroke-linecap="round" stroke-linejoin="round"/>
</g>
<defs>
<filter id="filter0_d_215_11" x="0.5" y="0" width="63.2451" height="49.5" filterUnits="userSpaceOnUse" color-interpolation-filters="sRGB">
<feFlood flood-opacity="0" result="BackgroundImageFix"/>
<feColorMatrix in="SourceAlpha" type="matrix" values="0 0 0 0 0 0 0 0 0 0 0 0 0 0 0 0 0 0 127 0" result="hardAlpha"/>
<feOffset/>
<feGaussianBlur stdDeviation="3"/>
<feComposite in2="hardAlpha" operator="out"/>
<feColorMatrix type="matrix" values="0 0 0 0 1 0 0 0 0 1 0 0 0 0 1 0 0 0 0.77 0"/>
<feBlend mode="normal" in2="BackgroundImageFix" result="effect1_dropShadow_215_11"/>
<feBlend mode="normal" in="SourceGraphic" in2="effect1_dropShadow_215_11" result="shape"/>
</filter>
</defs>
</svg>
