<svg width="50" height="79" viewBox="0 0 50 79" fill="none" xmlns="http://www.w3.org/2000/svg">
<g filter="url(#filter0_d_1771_669)">
<path d="M4 12.4668C4 7.60481 9.72543 5.00525 13.3859 8.20525L44.1253 35.0781C46.7052 37.3334 46.7052 41.3458 44.1253 43.6012L13.3859 70.474C9.72543 73.674 4 71.0744 4 66.2125V12.4668Z" fill="#8734C8"/>
</g>
<g filter="url(#filter1_i_1771_669)">
<path d="M9.37744 19.652C9.37744 16.69 12.9043 15.1475 15.0792 17.1582L36.6801 37.1289C38.1344 38.4734 38.1344 40.7719 36.6801 42.1164L15.0792 62.087C12.9043 64.0978 9.37744 62.5552 9.37744 59.5933V19.652Z" fill="#9F42E8"/>
</g>
<defs>
<filter id="filter0_d_1771_669" x="0.603774" y="3.39918" width="48.8525" height="71.8809" filterUnits="userSpaceOnUse" color-interpolation-filters="sRGB">
<feFlood flood-opacity="0" result="BackgroundImageFix"/>
<feColorMatrix in="SourceAlpha" type="matrix" values="0 0 0 0 0 0 0 0 0 0 0 0 0 0 0 0 0 0 127 0" result="hardAlpha"/>
<feOffset/>
<feGaussianBlur stdDeviation="1.69811"/>
<feComposite in2="hardAlpha" operator="out"/>
<feColorMatrix type="matrix" values="0 0 0 0 1 0 0 0 0 1 0 0 0 0 1 0 0 0 0.77 0"/>
<feBlend mode="normal" in2="BackgroundImageFix" result="effect1_dropShadow_1771_669"/>
<feBlend mode="normal" in="SourceGraphic" in2="effect1_dropShadow_1771_669" result="shape"/>
</filter>
<filter id="filter1_i_1771_669" x="9.37744" y="16.249" width="28.3936" height="46.7472" filterUnits="userSpaceOnUse" color-interpolation-filters="sRGB">
<feFlood flood-opacity="0" result="BackgroundImageFix"/>
<feBlend mode="normal" in="SourceGraphic" in2="BackgroundImageFix" result="shape"/>
<feColorMatrix in="SourceAlpha" type="matrix" values="0 0 0 0 0 0 0 0 0 0 0 0 0 0 0 0 0 0 127 0" result="hardAlpha"/>
<feOffset/>
<feGaussianBlur stdDeviation="4.24528"/>
<feComposite in2="hardAlpha" operator="arithmetic" k2="-1" k3="1"/>
<feColorMatrix type="matrix" values="0 0 0 0 0.666667 0 0 0 0 0.470588 0 0 0 0 0.913725 0 0 0 1 0"/>
<feBlend mode="normal" in2="shape" result="effect1_innerShadow_1771_669"/>
</filter>
</defs>
</svg>
