<svg width="83" height="83" viewBox="0 0 83 83" fill="none" xmlns="http://www.w3.org/2000/svg">
<g filter="url(#filter0_d_1771_623)">
<path d="M41.5 27.6234C38.7555 27.6234 36.0726 28.4373 33.7906 29.9621C31.5086 31.4868 29.73 33.6541 28.6797 36.1897C27.6294 38.7253 27.3546 41.5154 27.8901 44.2072C28.4255 46.899 29.7471 49.3715 31.6878 51.3122C33.6285 53.2529 36.101 54.5745 38.7928 55.1099C41.4846 55.6454 44.2747 55.3706 46.8103 54.3203C49.3459 53.27 51.5132 51.4914 53.0379 49.2094C54.5627 46.9274 55.3766 44.2445 55.3766 41.5C55.3766 37.8197 53.9146 34.2901 51.3122 31.6878C48.7099 29.0854 45.1803 27.6234 41.5 27.6234ZM41.5 51.3422C39.5534 51.3422 37.6505 50.765 36.032 49.6835C34.4134 48.602 33.1519 47.0649 32.407 45.2664C31.6621 43.468 31.4672 41.4891 31.8469 39.5799C32.2267 37.6707 33.1641 35.917 34.5405 34.5405C35.917 33.1641 37.6707 32.2267 39.5799 31.8469C41.4891 31.4672 43.468 31.6621 45.2664 32.407C47.0649 33.1519 48.602 34.4134 49.6835 36.032C50.765 37.6505 51.3422 39.5534 51.3422 41.5C51.3422 44.1103 50.3053 46.6137 48.4595 48.4595C46.6137 50.3052 44.1103 51.3422 41.5 51.3422Z" fill="white" stroke="white" stroke-width="0.8"/>
<mask id="path-2-outside-1_1771_623" maskUnits="userSpaceOnUse" x="6" y="6" width="71" height="71" fill="black">
<rect fill="white" x="6" y="6" width="71" height="71"/>
<path d="M72.2266 32.875H67.4127C67.3006 32.8742 67.1916 32.8384 67.1008 32.7727C67.01 32.707 66.9419 32.6146 66.906 32.5084C66.5927 31.6187 66.2329 30.746 65.8279 29.894C65.7773 29.7935 65.7595 29.6796 65.7769 29.5685C65.7943 29.4573 65.8461 29.3543 65.9249 29.2741L69.3264 25.8672C69.6768 25.5168 69.9548 25.1008 70.1445 24.643C70.3341 24.1851 70.4318 23.6944 70.4318 23.1988C70.4318 22.7033 70.3341 22.2125 70.1445 21.7547C69.9548 21.2969 69.6768 20.8809 69.3264 20.5305L62.4641 13.6736C62.1137 13.3232 61.6977 13.0452 61.2399 12.8555C60.7821 12.6659 60.2914 12.5682 59.7958 12.5682C59.3002 12.5682 58.8095 12.6659 58.3517 12.8555C57.8938 13.0452 57.4778 13.3232 57.1274 13.6736L53.7259 17.0751C53.6457 17.1539 53.5427 17.2057 53.4315 17.2231C53.3204 17.2405 53.2065 17.2227 53.106 17.1721C52.2541 16.767 51.3814 16.4071 50.4916 16.094C50.3854 16.0581 50.293 15.99 50.2273 15.8992C50.1616 15.8084 50.1258 15.6994 50.125 15.5873V10.7734C50.125 9.77266 49.7274 8.81287 49.0198 8.10521C48.3121 7.39756 47.3523 7 46.3516 7H36.6484C35.6477 7 34.6879 7.39756 33.9802 8.10521C33.2726 8.81287 32.875 9.77266 32.875 10.7734V15.5873C32.8742 15.6994 32.8384 15.8084 32.7727 15.8992C32.707 15.99 32.6146 16.0581 32.5084 16.094C31.6187 16.4073 30.746 16.7671 29.894 17.1721C29.7935 17.2227 29.6796 17.2405 29.5685 17.2231C29.4573 17.2057 29.3543 17.1539 29.2741 17.0751L25.8672 13.6736C25.5168 13.3232 25.1008 13.0452 24.643 12.8555C24.1851 12.6659 23.6944 12.5682 23.1988 12.5682C22.7033 12.5682 22.2125 12.6659 21.7547 12.8555C21.2969 13.0452 20.8809 13.3232 20.5305 13.6736L13.6736 20.5359C13.3232 20.8863 13.0452 21.3023 12.8555 21.7601C12.6659 22.2179 12.5682 22.7087 12.5682 23.2042C12.5682 23.6998 12.6659 24.1905 12.8555 24.6483C13.0452 25.1062 13.3232 25.5222 13.6736 25.8726L17.0751 29.2741C17.1539 29.3543 17.2057 29.4573 17.2231 29.5685C17.2405 29.6796 17.2227 29.7935 17.1721 29.894C16.767 30.7459 16.4071 31.6186 16.094 32.5084C16.0581 32.6146 15.99 32.707 15.8992 32.7727C15.8084 32.8384 15.6994 32.8742 15.5873 32.875H10.7734C9.77266 32.875 8.81287 33.2726 8.10521 33.9802C7.39756 34.6879 7 35.6477 7 36.6484L7 46.3516C7 47.3523 7.39756 48.3121 8.10521 49.0198C8.81287 49.7274 9.77266 50.125 10.7734 50.125H15.5873C15.6994 50.1258 15.8084 50.1616 15.8992 50.2273C15.99 50.293 16.0581 50.3854 16.094 50.4916C16.4073 51.3813 16.7671 52.254 17.1721 53.106C17.2227 53.2065 17.2405 53.3204 17.2231 53.4315C17.2057 53.5427 17.1539 53.6457 17.0751 53.7259L13.6736 57.1328C13.3232 57.4832 13.0452 57.8992 12.8555 58.3571C12.6659 58.8149 12.5682 59.3056 12.5682 59.8012C12.5682 60.2967 12.6659 60.7875 12.8555 61.2453C13.0452 61.7031 13.3232 62.1191 13.6736 62.4695L20.5359 69.3318C20.8863 69.6822 21.3023 69.9602 21.7601 70.1499C22.2179 70.3395 22.7087 70.4371 23.2042 70.4371C23.6998 70.4371 24.1905 70.3395 24.6483 70.1499C25.1062 69.9602 25.5222 69.6822 25.8726 69.3318L29.2741 65.9303C29.3543 65.8515 29.4573 65.7997 29.5685 65.7823C29.6796 65.7649 29.7935 65.7827 29.894 65.8333C30.7459 66.2384 31.6186 66.5983 32.5084 66.9114C32.6146 66.9473 32.707 67.0154 32.7727 67.1062C32.8384 67.197 32.8742 67.306 32.875 67.4181V72.2266C32.875 73.2273 33.2726 74.1871 33.9802 74.8948C34.6879 75.6024 35.6477 76 36.6484 76H46.3516C47.3523 76 48.3121 75.6024 49.0198 74.8948C49.7274 74.1871 50.125 73.2273 50.125 72.2266V67.4127C50.1258 67.3006 50.1616 67.1916 50.2273 67.1008C50.293 67.01 50.3854 66.9419 50.4916 66.906C51.3813 66.5927 52.254 66.2329 53.106 65.8279C53.2065 65.7773 53.3204 65.7595 53.4315 65.7769C53.5427 65.7943 53.6457 65.8461 53.7259 65.9249L57.1328 69.3264C57.4832 69.6768 57.8992 69.9548 58.3571 70.1445C58.8149 70.3341 59.3056 70.4318 59.8012 70.4318C60.2967 70.4318 60.7875 70.3341 61.2453 70.1445C61.7031 69.9548 62.1191 69.6768 62.4695 69.3264L69.3318 62.4641C69.6822 62.1137 69.9602 61.6977 70.1499 61.2399C70.3395 60.7821 70.4371 60.2914 70.4371 59.7958C70.4371 59.3002 70.3395 58.8095 70.1499 58.3517C69.9602 57.8938 69.6822 57.4778 69.3318 57.1274L65.9303 53.7259C65.8515 53.6457 65.7997 53.5427 65.7823 53.4315C65.7649 53.3204 65.7827 53.2065 65.8333 53.106C66.2384 52.2541 66.5983 51.3814 66.9114 50.4916C66.9473 50.3854 67.0154 50.293 67.1062 50.2273C67.197 50.1616 67.306 50.1258 67.4181 50.125H72.2266C73.2273 50.125 74.1871 49.7274 74.8948 49.0198C75.6024 48.3121 76 47.3523 76 46.3516V36.6484C76 35.6477 75.6024 34.6879 74.8948 33.9802C74.1871 33.2726 73.2273 32.875 72.2266 32.875ZM72.7656 46.3516C72.7656 46.4945 72.7088 46.6316 72.6077 46.7327C72.5066 46.8338 72.3695 46.8906 72.2266 46.8906H67.4127C66.6309 46.8915 65.8686 47.1352 65.2312 47.5881C64.5939 48.041 64.1129 48.6808 63.8549 49.4188C63.5791 50.2004 63.2624 50.9669 62.9062 51.7152C62.5646 52.4206 62.4512 53.2149 62.5816 53.9877C62.712 54.7605 63.0798 55.4735 63.6339 56.0277L67.0354 59.4292C67.1358 59.5302 67.1921 59.6668 67.1921 59.8093C67.1921 59.9517 67.1358 60.0883 67.0354 60.1893L60.1785 67.0408C60.0775 67.1412 59.9409 67.1975 59.7985 67.1975C59.6561 67.1975 59.5194 67.1412 59.4184 67.0408L56.017 63.6393C55.4627 63.0852 54.7497 62.7174 53.9769 62.587C53.2041 62.4565 52.4098 62.57 51.7045 62.9116C50.9544 63.268 50.186 63.5847 49.4027 63.8603C48.6656 64.1192 48.027 64.6005 47.5752 65.2378C47.1233 65.8751 46.8803 66.6369 46.8798 67.4181V72.2266C46.8798 72.3695 46.823 72.5066 46.722 72.6077C46.6209 72.7088 46.4838 72.7656 46.3408 72.7656H36.6484C36.5055 72.7656 36.3684 72.7088 36.2673 72.6077C36.1662 72.5066 36.1094 72.3695 36.1094 72.2266V67.4127C36.1085 66.6309 35.8648 65.8686 35.4119 65.2312C34.959 64.5939 34.3193 64.1129 33.5812 63.8549C32.7996 63.5791 32.0331 63.2624 31.2848 62.9062C30.5794 62.5646 29.7851 62.4512 29.0123 62.5816C28.2395 62.712 27.5265 63.0798 26.9723 63.6339L23.5708 67.0354C23.4698 67.1358 23.3332 67.1921 23.1907 67.1921C23.0483 67.1921 22.9117 67.1358 22.8107 67.0354L15.9592 60.1785C15.8588 60.0775 15.8025 59.9409 15.8025 59.7985C15.8025 59.6561 15.8588 59.5194 15.9592 59.4184L19.3607 56.017C19.9148 55.4627 20.2826 54.7497 20.413 53.9769C20.5435 53.2041 20.43 52.4098 20.0884 51.7045C19.732 50.9544 19.4153 50.186 19.1397 49.4027C18.8793 48.6685 18.398 48.0329 17.762 47.5831C17.1259 47.1333 16.3663 46.8914 15.5873 46.8906H10.7734C10.6305 46.8906 10.4934 46.8338 10.3923 46.7327C10.2912 46.6316 10.2344 46.4945 10.2344 46.3516V36.6484C10.2344 36.5055 10.2912 36.3684 10.3923 36.2673C10.4934 36.1662 10.6305 36.1094 10.7734 36.1094H15.5873C16.3691 36.1085 17.1314 35.8648 17.7688 35.4119C18.4061 34.959 18.8871 34.3193 19.1451 33.5812C19.4209 32.7996 19.7376 32.0331 20.0938 31.2848C20.4354 30.5794 20.5489 29.7851 20.4184 29.0123C20.288 28.2395 19.9202 27.5265 19.3661 26.9723L15.9646 23.5708C15.8642 23.4698 15.8079 23.3332 15.8079 23.1907C15.8079 23.0483 15.8642 22.9117 15.9646 22.8107L22.8215 15.9592C22.9225 15.8588 23.0591 15.8025 23.2015 15.8025C23.3439 15.8025 23.4806 15.8588 23.5816 15.9592L26.983 19.3607C27.5373 19.9148 28.2503 20.2826 29.0231 20.413C29.7959 20.5435 30.5902 20.43 31.2955 20.0884C32.0456 19.732 32.814 19.4153 33.5973 19.1397C34.3315 18.8793 34.9671 18.398 35.4169 17.762C35.8667 17.1259 36.1086 16.3663 36.1094 15.5873V10.7734C36.1094 10.6305 36.1662 10.4934 36.2673 10.3923C36.3684 10.2912 36.5055 10.2344 36.6484 10.2344H46.3516C46.4945 10.2344 46.6316 10.2912 46.7327 10.3923C46.8338 10.4934 46.8906 10.6305 46.8906 10.7734V15.5873C46.8915 16.3691 47.1352 17.1314 47.5881 17.7688C48.041 18.4061 48.6808 18.8871 49.4188 19.1451C50.2004 19.4209 50.9669 19.7376 51.7152 20.0938C52.4206 20.4354 53.2149 20.5489 53.9877 20.4184C54.7605 20.288 55.4735 19.9202 56.0277 19.3661L59.4292 15.9646C59.5302 15.8642 59.6668 15.8079 59.8093 15.8079C59.9517 15.8079 60.0883 15.8642 60.1893 15.9646L67.0516 22.8269C67.152 22.9279 67.2083 23.0645 67.2083 23.2069C67.2083 23.3493 67.152 23.486 67.0516 23.587L63.6501 26.9884C63.0959 27.5427 62.7281 28.2557 62.5977 29.0285C62.4673 29.8013 62.5808 30.5956 62.9223 31.3009C63.2788 32.051 63.5955 32.8193 63.8711 33.6027C64.13 34.3398 64.6113 34.9783 65.2486 35.4302C65.8859 35.8821 66.6477 36.1251 67.4289 36.1255H72.2266C72.3695 36.1255 72.5066 36.1823 72.6077 36.2834C72.7088 36.3845 72.7656 36.5216 72.7656 36.6646V46.3516Z"/>
</mask>
<path d="M72.2266 32.875H67.4127C67.3006 32.8742 67.1916 32.8384 67.1008 32.7727C67.01 32.707 66.9419 32.6146 66.906 32.5084C66.5927 31.6187 66.2329 30.746 65.8279 29.894C65.7773 29.7935 65.7595 29.6796 65.7769 29.5685C65.7943 29.4573 65.8461 29.3543 65.9249 29.2741L69.3264 25.8672C69.6768 25.5168 69.9548 25.1008 70.1445 24.643C70.3341 24.1851 70.4318 23.6944 70.4318 23.1988C70.4318 22.7033 70.3341 22.2125 70.1445 21.7547C69.9548 21.2969 69.6768 20.8809 69.3264 20.5305L62.4641 13.6736C62.1137 13.3232 61.6977 13.0452 61.2399 12.8555C60.7821 12.6659 60.2914 12.5682 59.7958 12.5682C59.3002 12.5682 58.8095 12.6659 58.3517 12.8555C57.8938 13.0452 57.4778 13.3232 57.1274 13.6736L53.7259 17.0751C53.6457 17.1539 53.5427 17.2057 53.4315 17.2231C53.3204 17.2405 53.2065 17.2227 53.106 17.1721C52.2541 16.767 51.3814 16.4071 50.4916 16.094C50.3854 16.0581 50.293 15.99 50.2273 15.8992C50.1616 15.8084 50.1258 15.6994 50.125 15.5873V10.7734C50.125 9.77266 49.7274 8.81287 49.0198 8.10521C48.3121 7.39756 47.3523 7 46.3516 7H36.6484C35.6477 7 34.6879 7.39756 33.9802 8.10521C33.2726 8.81287 32.875 9.77266 32.875 10.7734V15.5873C32.8742 15.6994 32.8384 15.8084 32.7727 15.8992C32.707 15.99 32.6146 16.0581 32.5084 16.094C31.6187 16.4073 30.746 16.7671 29.894 17.1721C29.7935 17.2227 29.6796 17.2405 29.5685 17.2231C29.4573 17.2057 29.3543 17.1539 29.2741 17.0751L25.8672 13.6736C25.5168 13.3232 25.1008 13.0452 24.643 12.8555C24.1851 12.6659 23.6944 12.5682 23.1988 12.5682C22.7033 12.5682 22.2125 12.6659 21.7547 12.8555C21.2969 13.0452 20.8809 13.3232 20.5305 13.6736L13.6736 20.5359C13.3232 20.8863 13.0452 21.3023 12.8555 21.7601C12.6659 22.2179 12.5682 22.7087 12.5682 23.2042C12.5682 23.6998 12.6659 24.1905 12.8555 24.6483C13.0452 25.1062 13.3232 25.5222 13.6736 25.8726L17.0751 29.2741C17.1539 29.3543 17.2057 29.4573 17.2231 29.5685C17.2405 29.6796 17.2227 29.7935 17.1721 29.894C16.767 30.7459 16.4071 31.6186 16.094 32.5084C16.0581 32.6146 15.99 32.707 15.8992 32.7727C15.8084 32.8384 15.6994 32.8742 15.5873 32.875H10.7734C9.77266 32.875 8.81287 33.2726 8.10521 33.9802C7.39756 34.6879 7 35.6477 7 36.6484L7 46.3516C7 47.3523 7.39756 48.3121 8.10521 49.0198C8.81287 49.7274 9.77266 50.125 10.7734 50.125H15.5873C15.6994 50.1258 15.8084 50.1616 15.8992 50.2273C15.99 50.293 16.0581 50.3854 16.094 50.4916C16.4073 51.3813 16.7671 52.254 17.1721 53.106C17.2227 53.2065 17.2405 53.3204 17.2231 53.4315C17.2057 53.5427 17.1539 53.6457 17.0751 53.7259L13.6736 57.1328C13.3232 57.4832 13.0452 57.8992 12.8555 58.3571C12.6659 58.8149 12.5682 59.3056 12.5682 59.8012C12.5682 60.2967 12.6659 60.7875 12.8555 61.2453C13.0452 61.7031 13.3232 62.1191 13.6736 62.4695L20.5359 69.3318C20.8863 69.6822 21.3023 69.9602 21.7601 70.1499C22.2179 70.3395 22.7087 70.4371 23.2042 70.4371C23.6998 70.4371 24.1905 70.3395 24.6483 70.1499C25.1062 69.9602 25.5222 69.6822 25.8726 69.3318L29.2741 65.9303C29.3543 65.8515 29.4573 65.7997 29.5685 65.7823C29.6796 65.7649 29.7935 65.7827 29.894 65.8333C30.7459 66.2384 31.6186 66.5983 32.5084 66.9114C32.6146 66.9473 32.707 67.0154 32.7727 67.1062C32.8384 67.197 32.8742 67.306 32.875 67.4181V72.2266C32.875 73.2273 33.2726 74.1871 33.9802 74.8948C34.6879 75.6024 35.6477 76 36.6484 76H46.3516C47.3523 76 48.3121 75.6024 49.0198 74.8948C49.7274 74.1871 50.125 73.2273 50.125 72.2266V67.4127C50.1258 67.3006 50.1616 67.1916 50.2273 67.1008C50.293 67.01 50.3854 66.9419 50.4916 66.906C51.3813 66.5927 52.254 66.2329 53.106 65.8279C53.2065 65.7773 53.3204 65.7595 53.4315 65.7769C53.5427 65.7943 53.6457 65.8461 53.7259 65.9249L57.1328 69.3264C57.4832 69.6768 57.8992 69.9548 58.3571 70.1445C58.8149 70.3341 59.3056 70.4318 59.8012 70.4318C60.2967 70.4318 60.7875 70.3341 61.2453 70.1445C61.7031 69.9548 62.1191 69.6768 62.4695 69.3264L69.3318 62.4641C69.6822 62.1137 69.9602 61.6977 70.1499 61.2399C70.3395 60.7821 70.4371 60.2914 70.4371 59.7958C70.4371 59.3002 70.3395 58.8095 70.1499 58.3517C69.9602 57.8938 69.6822 57.4778 69.3318 57.1274L65.9303 53.7259C65.8515 53.6457 65.7997 53.5427 65.7823 53.4315C65.7649 53.3204 65.7827 53.2065 65.8333 53.106C66.2384 52.2541 66.5983 51.3814 66.9114 50.4916C66.9473 50.3854 67.0154 50.293 67.1062 50.2273C67.197 50.1616 67.306 50.1258 67.4181 50.125H72.2266C73.2273 50.125 74.1871 49.7274 74.8948 49.0198C75.6024 48.3121 76 47.3523 76 46.3516V36.6484C76 35.6477 75.6024 34.6879 74.8948 33.9802C74.1871 33.2726 73.2273 32.875 72.2266 32.875ZM72.7656 46.3516C72.7656 46.4945 72.7088 46.6316 72.6077 46.7327C72.5066 46.8338 72.3695 46.8906 72.2266 46.8906H67.4127C66.6309 46.8915 65.8686 47.1352 65.2312 47.5881C64.5939 48.041 64.1129 48.6808 63.8549 49.4188C63.5791 50.2004 63.2624 50.9669 62.9062 51.7152C62.5646 52.4206 62.4512 53.2149 62.5816 53.9877C62.712 54.7605 63.0798 55.4735 63.6339 56.0277L67.0354 59.4292C67.1358 59.5302 67.1921 59.6668 67.1921 59.8093C67.1921 59.9517 67.1358 60.0883 67.0354 60.1893L60.1785 67.0408C60.0775 67.1412 59.9409 67.1975 59.7985 67.1975C59.6561 67.1975 59.5194 67.1412 59.4184 67.0408L56.017 63.6393C55.4627 63.0852 54.7497 62.7174 53.9769 62.587C53.2041 62.4565 52.4098 62.57 51.7045 62.9116C50.9544 63.268 50.186 63.5847 49.4027 63.8603C48.6656 64.1192 48.027 64.6005 47.5752 65.2378C47.1233 65.8751 46.8803 66.6369 46.8798 67.4181V72.2266C46.8798 72.3695 46.823 72.5066 46.722 72.6077C46.6209 72.7088 46.4838 72.7656 46.3408 72.7656H36.6484C36.5055 72.7656 36.3684 72.7088 36.2673 72.6077C36.1662 72.5066 36.1094 72.3695 36.1094 72.2266V67.4127C36.1085 66.6309 35.8648 65.8686 35.4119 65.2312C34.959 64.5939 34.3193 64.1129 33.5812 63.8549C32.7996 63.5791 32.0331 63.2624 31.2848 62.9062C30.5794 62.5646 29.7851 62.4512 29.0123 62.5816C28.2395 62.712 27.5265 63.0798 26.9723 63.6339L23.5708 67.0354C23.4698 67.1358 23.3332 67.1921 23.1907 67.1921C23.0483 67.1921 22.9117 67.1358 22.8107 67.0354L15.9592 60.1785C15.8588 60.0775 15.8025 59.9409 15.8025 59.7985C15.8025 59.6561 15.8588 59.5194 15.9592 59.4184L19.3607 56.017C19.9148 55.4627 20.2826 54.7497 20.413 53.9769C20.5435 53.2041 20.43 52.4098 20.0884 51.7045C19.732 50.9544 19.4153 50.186 19.1397 49.4027C18.8793 48.6685 18.398 48.0329 17.762 47.5831C17.1259 47.1333 16.3663 46.8914 15.5873 46.8906H10.7734C10.6305 46.8906 10.4934 46.8338 10.3923 46.7327C10.2912 46.6316 10.2344 46.4945 10.2344 46.3516V36.6484C10.2344 36.5055 10.2912 36.3684 10.3923 36.2673C10.4934 36.1662 10.6305 36.1094 10.7734 36.1094H15.5873C16.3691 36.1085 17.1314 35.8648 17.7688 35.4119C18.4061 34.959 18.8871 34.3193 19.1451 33.5812C19.4209 32.7996 19.7376 32.0331 20.0938 31.2848C20.4354 30.5794 20.5489 29.7851 20.4184 29.0123C20.288 28.2395 19.9202 27.5265 19.3661 26.9723L15.9646 23.5708C15.8642 23.4698 15.8079 23.3332 15.8079 23.1907C15.8079 23.0483 15.8642 22.9117 15.9646 22.8107L22.8215 15.9592C22.9225 15.8588 23.0591 15.8025 23.2015 15.8025C23.3439 15.8025 23.4806 15.8588 23.5816 15.9592L26.983 19.3607C27.5373 19.9148 28.2503 20.2826 29.0231 20.413C29.7959 20.5435 30.5902 20.43 31.2955 20.0884C32.0456 19.732 32.814 19.4153 33.5973 19.1397C34.3315 18.8793 34.9671 18.398 35.4169 17.762C35.8667 17.1259 36.1086 16.3663 36.1094 15.5873V10.7734C36.1094 10.6305 36.1662 10.4934 36.2673 10.3923C36.3684 10.2912 36.5055 10.2344 36.6484 10.2344H46.3516C46.4945 10.2344 46.6316 10.2912 46.7327 10.3923C46.8338 10.4934 46.8906 10.6305 46.8906 10.7734V15.5873C46.8915 16.3691 47.1352 17.1314 47.5881 17.7688C48.041 18.4061 48.6808 18.8871 49.4188 19.1451C50.2004 19.4209 50.9669 19.7376 51.7152 20.0938C52.4206 20.4354 53.2149 20.5489 53.9877 20.4184C54.7605 20.288 55.4735 19.9202 56.0277 19.3661L59.4292 15.9646C59.5302 15.8642 59.6668 15.8079 59.8093 15.8079C59.9517 15.8079 60.0883 15.8642 60.1893 15.9646L67.0516 22.8269C67.152 22.9279 67.2083 23.0645 67.2083 23.2069C67.2083 23.3493 67.152 23.486 67.0516 23.587L63.6501 26.9884C63.0959 27.5427 62.7281 28.2557 62.5977 29.0285C62.4673 29.8013 62.5808 30.5956 62.9223 31.3009C63.2788 32.051 63.5955 32.8193 63.8711 33.6027C64.13 34.3398 64.6113 34.9783 65.2486 35.4302C65.8859 35.8821 66.6477 36.1251 67.4289 36.1255H72.2266C72.3695 36.1255 72.5066 36.1823 72.6077 36.2834C72.7088 36.3845 72.7656 36.5216 72.7656 36.6646V46.3516Z" fill="white"/>
<path d="M72.2266 32.875H67.4127C67.3006 32.8742 67.1916 32.8384 67.1008 32.7727C67.01 32.707 66.9419 32.6146 66.906 32.5084C66.5927 31.6187 66.2329 30.746 65.8279 29.894C65.7773 29.7935 65.7595 29.6796 65.7769 29.5685C65.7943 29.4573 65.8461 29.3543 65.9249 29.2741L69.3264 25.8672C69.6768 25.5168 69.9548 25.1008 70.1445 24.643C70.3341 24.1851 70.4318 23.6944 70.4318 23.1988C70.4318 22.7033 70.3341 22.2125 70.1445 21.7547C69.9548 21.2969 69.6768 20.8809 69.3264 20.5305L62.4641 13.6736C62.1137 13.3232 61.6977 13.0452 61.2399 12.8555C60.7821 12.6659 60.2914 12.5682 59.7958 12.5682C59.3002 12.5682 58.8095 12.6659 58.3517 12.8555C57.8938 13.0452 57.4778 13.3232 57.1274 13.6736L53.7259 17.0751C53.6457 17.1539 53.5427 17.2057 53.4315 17.2231C53.3204 17.2405 53.2065 17.2227 53.106 17.1721C52.2541 16.767 51.3814 16.4071 50.4916 16.094C50.3854 16.0581 50.293 15.99 50.2273 15.8992C50.1616 15.8084 50.1258 15.6994 50.125 15.5873V10.7734C50.125 9.77266 49.7274 8.81287 49.0198 8.10521C48.3121 7.39756 47.3523 7 46.3516 7H36.6484C35.6477 7 34.6879 7.39756 33.9802 8.10521C33.2726 8.81287 32.875 9.77266 32.875 10.7734V15.5873C32.8742 15.6994 32.8384 15.8084 32.7727 15.8992C32.707 15.99 32.6146 16.0581 32.5084 16.094C31.6187 16.4073 30.746 16.7671 29.894 17.1721C29.7935 17.2227 29.6796 17.2405 29.5685 17.2231C29.4573 17.2057 29.3543 17.1539 29.2741 17.0751L25.8672 13.6736C25.5168 13.3232 25.1008 13.0452 24.643 12.8555C24.1851 12.6659 23.6944 12.5682 23.1988 12.5682C22.7033 12.5682 22.2125 12.6659 21.7547 12.8555C21.2969 13.0452 20.8809 13.3232 20.5305 13.6736L13.6736 20.5359C13.3232 20.8863 13.0452 21.3023 12.8555 21.7601C12.6659 22.2179 12.5682 22.7087 12.5682 23.2042C12.5682 23.6998 12.6659 24.1905 12.8555 24.6483C13.0452 25.1062 13.3232 25.5222 13.6736 25.8726L17.0751 29.2741C17.1539 29.3543 17.2057 29.4573 17.2231 29.5685C17.2405 29.6796 17.2227 29.7935 17.1721 29.894C16.767 30.7459 16.4071 31.6186 16.094 32.5084C16.0581 32.6146 15.99 32.707 15.8992 32.7727C15.8084 32.8384 15.6994 32.8742 15.5873 32.875H10.7734C9.77266 32.875 8.81287 33.2726 8.10521 33.9802C7.39756 34.6879 7 35.6477 7 36.6484L7 46.3516C7 47.3523 7.39756 48.3121 8.10521 49.0198C8.81287 49.7274 9.77266 50.125 10.7734 50.125H15.5873C15.6994 50.1258 15.8084 50.1616 15.8992 50.2273C15.99 50.293 16.0581 50.3854 16.094 50.4916C16.4073 51.3813 16.7671 52.254 17.1721 53.106C17.2227 53.2065 17.2405 53.3204 17.2231 53.4315C17.2057 53.5427 17.1539 53.6457 17.0751 53.7259L13.6736 57.1328C13.3232 57.4832 13.0452 57.8992 12.8555 58.3571C12.6659 58.8149 12.5682 59.3056 12.5682 59.8012C12.5682 60.2967 12.6659 60.7875 12.8555 61.2453C13.0452 61.7031 13.3232 62.1191 13.6736 62.4695L20.5359 69.3318C20.8863 69.6822 21.3023 69.9602 21.7601 70.1499C22.2179 70.3395 22.7087 70.4371 23.2042 70.4371C23.6998 70.4371 24.1905 70.3395 24.6483 70.1499C25.1062 69.9602 25.5222 69.6822 25.8726 69.3318L29.2741 65.9303C29.3543 65.8515 29.4573 65.7997 29.5685 65.7823C29.6796 65.7649 29.7935 65.7827 29.894 65.8333C30.7459 66.2384 31.6186 66.5983 32.5084 66.9114C32.6146 66.9473 32.707 67.0154 32.7727 67.1062C32.8384 67.197 32.8742 67.306 32.875 67.4181V72.2266C32.875 73.2273 33.2726 74.1871 33.9802 74.8948C34.6879 75.6024 35.6477 76 36.6484 76H46.3516C47.3523 76 48.3121 75.6024 49.0198 74.8948C49.7274 74.1871 50.125 73.2273 50.125 72.2266V67.4127C50.1258 67.3006 50.1616 67.1916 50.2273 67.1008C50.293 67.01 50.3854 66.9419 50.4916 66.906C51.3813 66.5927 52.254 66.2329 53.106 65.8279C53.2065 65.7773 53.3204 65.7595 53.4315 65.7769C53.5427 65.7943 53.6457 65.8461 53.7259 65.9249L57.1328 69.3264C57.4832 69.6768 57.8992 69.9548 58.3571 70.1445C58.8149 70.3341 59.3056 70.4318 59.8012 70.4318C60.2967 70.4318 60.7875 70.3341 61.2453 70.1445C61.7031 69.9548 62.1191 69.6768 62.4695 69.3264L69.3318 62.4641C69.6822 62.1137 69.9602 61.6977 70.1499 61.2399C70.3395 60.7821 70.4371 60.2914 70.4371 59.7958C70.4371 59.3002 70.3395 58.8095 70.1499 58.3517C69.9602 57.8938 69.6822 57.4778 69.3318 57.1274L65.9303 53.7259C65.8515 53.6457 65.7997 53.5427 65.7823 53.4315C65.7649 53.3204 65.7827 53.2065 65.8333 53.106C66.2384 52.2541 66.5983 51.3814 66.9114 50.4916C66.9473 50.3854 67.0154 50.293 67.1062 50.2273C67.197 50.1616 67.306 50.1258 67.4181 50.125H72.2266C73.2273 50.125 74.1871 49.7274 74.8948 49.0198C75.6024 48.3121 76 47.3523 76 46.3516V36.6484C76 35.6477 75.6024 34.6879 74.8948 33.9802C74.1871 33.2726 73.2273 32.875 72.2266 32.875ZM72.7656 46.3516C72.7656 46.4945 72.7088 46.6316 72.6077 46.7327C72.5066 46.8338 72.3695 46.8906 72.2266 46.8906H67.4127C66.6309 46.8915 65.8686 47.1352 65.2312 47.5881C64.5939 48.041 64.1129 48.6808 63.8549 49.4188C63.5791 50.2004 63.2624 50.9669 62.9062 51.7152C62.5646 52.4206 62.4512 53.2149 62.5816 53.9877C62.712 54.7605 63.0798 55.4735 63.6339 56.0277L67.0354 59.4292C67.1358 59.5302 67.1921 59.6668 67.1921 59.8093C67.1921 59.9517 67.1358 60.0883 67.0354 60.1893L60.1785 67.0408C60.0775 67.1412 59.9409 67.1975 59.7985 67.1975C59.6561 67.1975 59.5194 67.1412 59.4184 67.0408L56.017 63.6393C55.4627 63.0852 54.7497 62.7174 53.9769 62.587C53.2041 62.4565 52.4098 62.57 51.7045 62.9116C50.9544 63.268 50.186 63.5847 49.4027 63.8603C48.6656 64.1192 48.027 64.6005 47.5752 65.2378C47.1233 65.8751 46.8803 66.6369 46.8798 67.4181V72.2266C46.8798 72.3695 46.823 72.5066 46.722 72.6077C46.6209 72.7088 46.4838 72.7656 46.3408 72.7656H36.6484C36.5055 72.7656 36.3684 72.7088 36.2673 72.6077C36.1662 72.5066 36.1094 72.3695 36.1094 72.2266V67.4127C36.1085 66.6309 35.8648 65.8686 35.4119 65.2312C34.959 64.5939 34.3193 64.1129 33.5812 63.8549C32.7996 63.5791 32.0331 63.2624 31.2848 62.9062C30.5794 62.5646 29.7851 62.4512 29.0123 62.5816C28.2395 62.712 27.5265 63.0798 26.9723 63.6339L23.5708 67.0354C23.4698 67.1358 23.3332 67.1921 23.1907 67.1921C23.0483 67.1921 22.9117 67.1358 22.8107 67.0354L15.9592 60.1785C15.8588 60.0775 15.8025 59.9409 15.8025 59.7985C15.8025 59.6561 15.8588 59.5194 15.9592 59.4184L19.3607 56.017C19.9148 55.4627 20.2826 54.7497 20.413 53.9769C20.5435 53.2041 20.43 52.4098 20.0884 51.7045C19.732 50.9544 19.4153 50.186 19.1397 49.4027C18.8793 48.6685 18.398 48.0329 17.762 47.5831C17.1259 47.1333 16.3663 46.8914 15.5873 46.8906H10.7734C10.6305 46.8906 10.4934 46.8338 10.3923 46.7327C10.2912 46.6316 10.2344 46.4945 10.2344 46.3516V36.6484C10.2344 36.5055 10.2912 36.3684 10.3923 36.2673C10.4934 36.1662 10.6305 36.1094 10.7734 36.1094H15.5873C16.3691 36.1085 17.1314 35.8648 17.7688 35.4119C18.4061 34.959 18.8871 34.3193 19.1451 33.5812C19.4209 32.7996 19.7376 32.0331 20.0938 31.2848C20.4354 30.5794 20.5489 29.7851 20.4184 29.0123C20.288 28.2395 19.9202 27.5265 19.3661 26.9723L15.9646 23.5708C15.8642 23.4698 15.8079 23.3332 15.8079 23.1907C15.8079 23.0483 15.8642 22.9117 15.9646 22.8107L22.8215 15.9592C22.9225 15.8588 23.0591 15.8025 23.2015 15.8025C23.3439 15.8025 23.4806 15.8588 23.5816 15.9592L26.983 19.3607C27.5373 19.9148 28.2503 20.2826 29.0231 20.413C29.7959 20.5435 30.5902 20.43 31.2955 20.0884C32.0456 19.732 32.814 19.4153 33.5973 19.1397C34.3315 18.8793 34.9671 18.398 35.4169 17.762C35.8667 17.1259 36.1086 16.3663 36.1094 15.5873V10.7734C36.1094 10.6305 36.1662 10.4934 36.2673 10.3923C36.3684 10.2912 36.5055 10.2344 36.6484 10.2344H46.3516C46.4945 10.2344 46.6316 10.2912 46.7327 10.3923C46.8338 10.4934 46.8906 10.6305 46.8906 10.7734V15.5873C46.8915 16.3691 47.1352 17.1314 47.5881 17.7688C48.041 18.4061 48.6808 18.8871 49.4188 19.1451C50.2004 19.4209 50.9669 19.7376 51.7152 20.0938C52.4206 20.4354 53.2149 20.5489 53.9877 20.4184C54.7605 20.288 55.4735 19.9202 56.0277 19.3661L59.4292 15.9646C59.5302 15.8642 59.6668 15.8079 59.8093 15.8079C59.9517 15.8079 60.0883 15.8642 60.1893 15.9646L67.0516 22.8269C67.152 22.9279 67.2083 23.0645 67.2083 23.2069C67.2083 23.3493 67.152 23.486 67.0516 23.587L63.6501 26.9884C63.0959 27.5427 62.7281 28.2557 62.5977 29.0285C62.4673 29.8013 62.5808 30.5956 62.9223 31.3009C63.2788 32.051 63.5955 32.8193 63.8711 33.6027C64.13 34.3398 64.6113 34.9783 65.2486 35.4302C65.8859 35.8821 66.6477 36.1251 67.4289 36.1255H72.2266C72.3695 36.1255 72.5066 36.1823 72.6077 36.2834C72.7088 36.3845 72.7656 36.5216 72.7656 36.6646V46.3516Z" stroke="white" stroke-width="1.6" mask="url(#path-2-outside-1_1771_623)"/>
</g>
<defs>
<filter id="filter0_d_1771_623" x="0.200195" y="0.200012" width="82.5996" height="82.6" filterUnits="userSpaceOnUse" color-interpolation-filters="sRGB">
<feFlood flood-opacity="0" result="BackgroundImageFix"/>
<feColorMatrix in="SourceAlpha" type="matrix" values="0 0 0 0 0 0 0 0 0 0 0 0 0 0 0 0 0 0 127 0" result="hardAlpha"/>
<feOffset/>
<feGaussianBlur stdDeviation="3"/>
<feComposite in2="hardAlpha" operator="out"/>
<feColorMatrix type="matrix" values="0 0 0 0 1 0 0 0 0 1 0 0 0 0 1 0 0 0 0.77 0"/>
<feBlend mode="normal" in2="BackgroundImageFix" result="effect1_dropShadow_1771_623"/>
<feBlend mode="normal" in="SourceGraphic" in2="effect1_dropShadow_1771_623" result="shape"/>
</filter>
</defs>
</svg>
