<svg width="33" height="32" viewBox="0 0 33 32" fill="none" xmlns="http://www.w3.org/2000/svg">
<path d="M31.8619 25.5073L31.7026 25.0273C31.3253 23.9059 30.0886 22.7363 28.9525 22.4281L24.7476 21.2794C23.6073 20.9692 21.9807 21.3864 21.1464 22.2206L18.0513 25.0273C12.5206 23.5329 8.18375 19.1958 6.6913 13.6663L9.78646 10.8595C10.6208 10.0252 11.0378 8.40071 10.7276 7.26042L9.58101 3.05345C9.27078 1.91524 8.09902 0.67855 6.97972 0.305404L6.49972 0.144018C5.37827 -0.229127 3.7789 0.148244 2.94468 0.982473L0.668238 3.26099C0.261554 3.66553 0.00163344 4.82259 0.00163344 4.82682C-0.0779862 12.0543 2.75599 19.0176 7.86842 24.1301C12.9683 29.23 19.9055 32.0598 27.112 31.999C27.1497 31.999 28.3403 31.7433 28.747 31.3387L31.0234 29.0622C31.8577 28.2281 32.235 26.6288 31.8619 25.5073Z" fill="white"/>
</svg>
