<svg width="138" height="183" viewBox="0 0 138 183" fill="none" xmlns="http://www.w3.org/2000/svg">
<path opacity="0.7" fill-rule="evenodd" clip-rule="evenodd" d="M120.978 60.695C120.978 71.9617 117.919 82.5113 112.588 91.5532C112.892 91.8604 113.183 92.1774 113.463 92.5034C115.527 91.6966 117.742 91.2713 120 91.2713C124.77 91.2713 129.347 93.1696 132.724 96.5525C136.101 99.9358 138 104.527 138 109.317V144.723C138 154.878 133.973 164.616 126.809 171.793C119.645 178.97 109.932 183 99.8059 183H77.3936C70.3485 183 63.5586 180.348 58.3711 175.565L11.9413 132.761L11.9306 132.751C10.0025 130.982 8.48091 128.813 7.47239 126.394C6.46199 123.971 5.99109 121.355 6.09289 118.73C6.1947 116.105 6.86672 113.534 8.06161 111.196C9.25647 108.859 10.9452 106.812 13.0094 105.197C13.0733 105.147 13.138 105.098 13.2034 105.05C14.3929 104.177 15.674 103.457 17.0169 102.899C6.48259 91.9763 0 77.0953 0 60.695C0 27.1741 27.0818 0 60.489 0C93.8961 0 120.978 27.1741 120.978 60.695ZM7.29515 60.695C7.29515 31.2168 31.1108 7.32 60.489 7.32C89.8671 7.32 113.683 31.2168 113.683 60.695C113.683 70.4678 111.065 79.6272 106.495 87.5057C104.387 86.6599 102.119 86.2133 99.8059 86.2133C97.5481 86.2133 95.3336 86.6386 93.2691 87.4453C99.1902 80.1489 102.74 70.8379 102.74 60.695C102.74 37.2809 83.8236 18.3 60.489 18.3C37.1544 18.3 18.2379 37.2809 18.2379 60.695C18.2379 77.2237 27.6646 91.5432 41.4178 98.5357V110.537C41.2093 110.457 41.0015 110.375 40.7943 110.292L36.6667 106.516C33.8269 103.83 30.2153 102.127 26.3616 101.639C14.707 91.8479 7.29515 77.1399 7.29515 60.695ZM99.8059 94.1433C100.476 94.1433 101.139 94.2101 101.786 94.3398C103.727 94.7286 105.526 95.6837 106.946 97.1062C107.319 97.4808 107.661 97.8818 107.968 98.3048C109.218 100.024 109.903 102.106 109.903 104.259V109.317C109.903 107.526 110.377 105.784 111.256 104.259C111.693 103.5 112.231 102.795 112.86 102.164C114.077 100.945 115.572 100.07 117.196 99.5992C118.099 99.3375 119.043 99.2013 120 99.2013C122.678 99.2013 125.246 100.267 127.14 102.164C129.033 104.061 130.097 106.634 130.097 109.317V144.723C130.097 152.771 126.906 160.49 121.225 166.181C115.544 171.873 107.84 175.07 99.8059 175.07H77.3936C72.3274 175.07 67.4461 173.163 63.7182 169.726L17.2694 126.904C16.1849 125.911 15.3296 124.692 14.7632 123.334C14.1968 121.975 13.9329 120.509 13.99 119.038C14.047 117.567 14.4236 116.126 15.0935 114.816C15.7634 113.505 16.7105 112.357 17.8687 111.451C19.7689 110.057 22.0803 109.346 24.4284 109.43C24.5309 109.434 24.6335 109.439 24.7361 109.446C27.1893 109.605 29.5082 110.625 31.2866 112.325L49.3209 128.825V63.7958C49.3209 61.1129 50.3847 58.5399 52.2782 56.6429C54.1718 54.7458 56.74 53.68 59.4179 53.68C62.0958 53.68 64.664 54.7458 66.5575 56.6429C68.4511 58.5399 69.5149 61.1129 69.5149 63.7958V99.2013C69.5149 97.4362 69.9753 95.7187 70.8295 94.21C71.2737 93.4254 71.8244 92.6973 72.4722 92.0483C73.8398 90.6781 75.5594 89.7416 77.418 89.3271C78.1327 89.1676 78.8681 89.0854 79.6119 89.0854C80.0468 89.0854 80.4789 89.1135 80.9056 89.1688C83.1063 89.4536 85.1655 90.4593 86.7515 92.0483C87.0924 92.3898 87.4063 92.7531 87.6921 93.1351C88.9936 94.8752 89.7089 97.0013 89.7089 99.2013V104.259C89.7089 102.468 90.183 100.726 91.0616 99.2013C91.4991 98.4421 92.0368 97.7368 92.6662 97.1062C93.8828 95.8874 95.3779 95.0117 97.0015 94.5413C97.9051 94.2796 98.8485 94.1433 99.8059 94.1433ZM95.4449 60.695C95.4449 69.1555 92.4596 76.9163 87.4883 82.9748C85.0565 81.7884 82.3664 81.1554 79.6119 81.1554C78.8747 81.1554 78.1422 81.2008 77.418 81.2899V63.7958C77.418 59.0058 75.5186 54.4145 72.1416 51.0312C68.765 47.6483 64.1879 45.75 59.4179 45.75C54.6479 45.75 50.0708 47.6483 46.6942 51.0312C43.3172 54.4145 41.4178 59.0058 41.4178 63.7958V90.0948C31.8543 83.836 25.533 73.0062 25.533 60.695C25.533 41.3236 41.1834 25.62 60.489 25.62C79.7946 25.62 95.4449 41.3236 95.4449 60.695Z" fill="white"/>
</svg>
