<svg width="58" height="58" viewBox="0 0 58 58" fill="none" xmlns="http://www.w3.org/2000/svg">
<g filter="url(#filter0_d_533_107)">
<path fill-rule="evenodd" clip-rule="evenodd" d="M52 29C52 41.7025 41.7025 52 29 52C16.2975 52 6 41.7025 6 29C6 16.2975 16.2975 6 29 6C41.7025 6 52 16.2975 52 29ZM29 47.6875C39.3208 47.6875 47.6875 39.3208 47.6875 29C47.6875 18.6792 39.3208 10.3125 29 10.3125C18.6792 10.3125 10.3125 18.6792 10.3125 29C10.3125 39.3208 18.6792 47.6875 29 47.6875Z" fill="white"/>
<path fill-rule="evenodd" clip-rule="evenodd" d="M28.2812 14.625C29.4721 14.625 30.4375 15.5904 30.4375 16.7812V29.9694L36.3527 36.5419C37.1494 37.4271 37.0776 38.7905 36.1925 39.5871C35.3073 40.3837 33.9439 40.312 33.1473 39.4268L26.6785 32.2393C26.3222 31.8434 26.125 31.3296 26.125 30.7969V16.7812C26.125 15.5904 27.0904 14.625 28.2812 14.625Z" fill="white"/>
</g>
<defs>
<filter id="filter0_d_533_107" x="0" y="0" width="58" height="58" filterUnits="userSpaceOnUse" color-interpolation-filters="sRGB">
<feFlood flood-opacity="0" result="BackgroundImageFix"/>
<feColorMatrix in="SourceAlpha" type="matrix" values="0 0 0 0 0 0 0 0 0 0 0 0 0 0 0 0 0 0 127 0" result="hardAlpha"/>
<feOffset/>
<feGaussianBlur stdDeviation="3"/>
<feComposite in2="hardAlpha" operator="out"/>
<feColorMatrix type="matrix" values="0 0 0 0 1 0 0 0 0 1 0 0 0 0 1 0 0 0 0.77 0"/>
<feBlend mode="normal" in2="BackgroundImageFix" result="effect1_dropShadow_533_107"/>
<feBlend mode="normal" in="SourceGraphic" in2="effect1_dropShadow_533_107" result="shape"/>
</filter>
</defs>
</svg>
