<svg width="99" height="79" viewBox="0 0 99 79" fill="none" xmlns="http://www.w3.org/2000/svg">
<g filter="url(#filter0_d_783_1416)">
<path fill-rule="evenodd" clip-rule="evenodd" d="M50.1596 6.00043C67.9251 6.25244 82.8057 20.7192 91.4621 34.7249C93.1457 37.4488 93.1872 40.8579 91.6198 43.6503C90.6829 45.3195 89.5742 47.1713 88.4944 48.6795C87.2049 50.48 85.8484 52.2341 84.4233 53.9305C83.4069 55.1383 82.357 56.3145 81.2682 57.4572C71.5372 67.6768 57.5624 75.3007 42.8052 72.3407C28.0302 69.3767 15.7091 57.6743 7.53548 44.3322C5.85883 41.5953 5.81755 38.1776 7.39445 35.3821C8.33545 33.7139 9.44877 31.8648 10.5335 30.3603C11.7338 28.6936 12.9936 27.0715 14.3129 25.4976C15.3237 24.2917 16.3717 23.1155 17.4549 21.9728C26.0524 12.9126 37.0841 5.93725 50.1596 6.00043ZM50.0909 13.4329C39.1466 13.392 30.0455 19.5033 22.8453 27.09C21.8661 28.1213 20.9222 29.1841 20.008 30.273C18.8058 31.7075 17.6575 33.1884 16.5631 34.7064C15.4686 36.2227 14.3463 38.1365 13.4563 39.7624C20.5431 51.671 31.1808 62.4277 44.2675 65.0532C56.4624 67.5003 67.8433 60.7777 75.8852 52.3325C76.8682 51.3013 77.8177 50.2366 78.7356 49.1459C80.0363 47.5981 81.2738 45.9982 82.45 44.3538C83.5388 42.832 84.6593 40.9144 85.5474 39.2867C78.193 26.9767 65.6099 13.6744 50.0909 13.4329Z" fill="white"/>
<path fill-rule="evenodd" clip-rule="evenodd" d="M49.5062 24.625C57.7284 24.625 64.4046 31.3012 64.4046 39.5215C64.4046 47.7437 57.7284 54.418 49.5062 54.418C41.2859 54.418 34.6097 47.7437 34.6097 39.5215C34.6097 31.3012 41.2859 24.625 49.5062 24.625ZM49.5062 32.0742C53.6183 32.0742 56.9554 35.4114 56.9554 39.5215C56.9554 43.6335 53.6183 46.9707 49.5062 46.9707C45.3961 46.9707 42.0589 43.6335 42.0589 39.5215C42.0589 35.4114 45.3961 32.0742 49.5062 32.0742Z" fill="white"/>
</g>
<defs>
<filter id="filter0_d_783_1416" x="0.243896" y="0" width="98.5173" height="78.9854" filterUnits="userSpaceOnUse" color-interpolation-filters="sRGB">
<feFlood flood-opacity="0" result="BackgroundImageFix"/>
<feColorMatrix in="SourceAlpha" type="matrix" values="0 0 0 0 0 0 0 0 0 0 0 0 0 0 0 0 0 0 127 0" result="hardAlpha"/>
<feOffset/>
<feGaussianBlur stdDeviation="3"/>
<feComposite in2="hardAlpha" operator="out"/>
<feColorMatrix type="matrix" values="0 0 0 0 1 0 0 0 0 1 0 0 0 0 1 0 0 0 0.77 0"/>
<feBlend mode="normal" in2="BackgroundImageFix" result="effect1_dropShadow_783_1416"/>
<feBlend mode="normal" in="SourceGraphic" in2="effect1_dropShadow_783_1416" result="shape"/>
</filter>
</defs>
</svg>
