<svg width="119" height="109" viewBox="0 0 119 109" fill="none" xmlns="http://www.w3.org/2000/svg">
<g filter="url(#filter0_ii_539_819)">
<path d="M25.671 73.3141L20.6085 87.4036C20.5789 87.486 20.5334 87.5617 20.4746 87.6264C20.4157 87.6911 20.3447 87.7437 20.2656 87.781C20.1865 87.8183 20.1008 87.8396 20.0134 87.8438C19.926 87.8479 19.8386 87.8349 19.7563 87.8053L9.39304 84.0817C9.22678 84.0219 9.09103 83.8986 9.01571 83.7388C8.94038 83.579 8.93165 83.3958 8.99139 83.2295L10.4665 79.1241C10.5032 79.0174 10.5669 78.922 10.6513 78.8472C10.7358 78.7723 10.8381 78.7206 10.9484 78.6969C11.0588 78.6733 11.1734 78.6786 11.2811 78.7124C11.3888 78.7461 11.4859 78.8072 11.563 78.8895C11.9007 79.27 12.3327 79.5547 12.8156 79.7149C13.2984 79.8751 13.815 79.9052 14.3131 79.802C14.8113 79.6989 15.2734 79.4662 15.6529 79.1275C16.0325 78.7887 16.316 78.3558 16.4748 77.8725C16.6993 77.16 16.6424 76.3885 16.3159 75.7166C15.9894 75.0447 15.418 74.5233 14.719 74.2595C14.2611 74.0897 13.7672 74.041 13.285 74.1179C13.1728 74.1319 13.059 74.1169 12.9544 74.0742C12.8497 74.0316 12.7578 73.9627 12.6875 73.8743C12.6171 73.7859 12.5706 73.6809 12.5525 73.5694C12.5344 73.4579 12.5453 73.3436 12.5841 73.2374L14.0592 69.132C14.119 68.9657 14.2423 68.83 14.4021 68.7547C14.5619 68.6793 14.7451 68.6706 14.9114 68.7304L25.2747 72.454C25.3574 72.484 25.4335 72.5302 25.4983 72.5898C25.5631 72.6495 25.6155 72.7214 25.6523 72.8014C25.6892 72.8814 25.7098 72.9679 25.713 73.0559C25.7162 73.1439 25.7019 73.2317 25.671 73.3141Z" fill="url(#paint0_linear_539_819)"/>
</g>
<g filter="url(#filter1_i_539_819)">
<path d="M39.2202 52.4785C39.8074 50.8442 38.9586 49.0434 37.3243 48.4562C35.6901 47.869 33.8892 48.7178 33.302 50.352L17.3537 94.7381C16.7665 96.3724 17.6153 98.1732 19.2495 98.7604C20.8838 99.3476 22.6846 98.4988 23.2718 96.8646L39.2202 52.4785Z" fill="url(#paint1_linear_539_819)"/>
</g>
<g filter="url(#filter2_i_539_819)">
<path d="M33.8415 40.3989C33.8368 40.3774 33.348 38.1699 29.7935 34.2867C24.7753 28.8084 23.7754 23.2568 26.8226 17.7932C28.3607 15.0345 30.69 13.1391 33.3817 12.4531C34.5494 12.1516 35.7666 12.094 36.9575 12.2838C38.1484 12.4737 39.2875 12.907 40.3035 13.5566C45.0144 16.5288 45.8923 20.4774 46.1308 23.9463C46.3339 26.9421 44.8552 28.5986 43.5335 29.1087C42.9185 29.3499 42.2416 29.3835 41.6058 29.2042C40.9701 29.0249 40.4104 28.6426 40.0121 28.1157C39.7563 27.8128 39.5669 27.4595 39.4565 27.0787C39.346 26.6979 39.3168 26.2981 39.3709 25.9053C39.4304 25.5423 39.561 25.1946 39.7553 24.8821C39.9495 24.5697 40.2035 24.2987 40.5027 24.0846C40.6787 23.9623 40.877 23.8759 41.0864 23.8303C41.2958 23.7847 41.5121 23.7808 41.723 23.8189C41.9339 23.8569 42.1353 23.9362 42.3155 24.0522C42.4957 24.1681 42.6513 24.3185 42.7734 24.4946C42.8164 24.5581 42.8555 24.6242 42.8904 24.6926C42.8984 24.5169 42.8963 24.341 42.8841 24.1657C42.6542 20.8657 41.8579 18.3844 38.5716 16.3102C37.9292 15.8993 37.209 15.6252 36.456 15.505C35.7029 15.3847 34.9332 15.4208 34.1947 15.6111C32.3805 16.073 30.7758 17.4119 29.6803 19.3794C27.3289 23.5956 28.1304 27.633 32.2058 32.0846C36.4733 36.7387 37.0145 39.5442 37.0634 39.8489L33.8431 40.3599L33.8415 40.3989Z" fill="url(#paint2_linear_539_819)"/>
</g>
<g filter="url(#filter3_i_539_819)">
<path d="M45.4084 44.5549L45.437 44.5305L43.2783 42.0868C43.51 41.883 45.7195 40.0659 51.9667 39.1897C57.9411 38.3492 61.1246 35.7435 62.0009 30.9973C62.4059 28.7817 62.0225 26.7285 60.9171 25.2176C60.4683 24.6007 59.8972 24.0827 59.2394 23.6961C58.5817 23.3095 57.8514 23.0624 57.094 22.9703C53.2391 22.4786 51.0496 23.8748 48.7681 26.2847C48.647 26.4122 48.5335 26.5466 48.4279 26.6871C48.4991 26.6569 48.572 26.631 48.6463 26.6097C49.0625 26.4929 49.508 26.5461 49.885 26.7576C50.2619 26.9692 50.5394 27.3218 50.6565 27.7378C50.7515 28.0934 50.7753 28.4641 50.7266 28.8289C50.678 29.1936 50.5577 29.5452 50.3729 29.8633C50.1646 30.2007 49.8876 30.4905 49.5601 30.7139C49.2325 30.9373 48.8616 31.0893 48.4715 31.1601C47.8285 31.3135 47.153 31.2523 46.5481 30.9858C45.9431 30.7193 45.442 30.2621 45.1212 29.6841C44.4214 28.4427 44.3336 26.2282 46.4035 24.0491C48.7952 21.5253 51.9833 19.0377 57.5086 19.7435C58.706 19.8892 59.8606 20.2801 60.9004 20.8917C61.9401 21.5033 62.8427 22.3226 63.5519 23.2984C65.1914 25.5407 65.7796 28.4843 65.2102 31.5911C64.0832 37.7446 59.7817 41.3889 52.4236 42.4227C47.1937 43.1472 45.4139 44.5396 45.4084 44.5549Z" fill="url(#paint3_linear_539_819)"/>
</g>
<g filter="url(#filter4_i_539_819)">
<path d="M42.4446 46.8311L34.5537 43.9959C34.009 43.8002 33.4087 44.0831 33.213 44.6278L33.0791 45.0005C32.8834 45.5452 33.1663 46.1455 33.711 46.3412L41.6019 49.1765C42.1466 49.3722 42.7469 49.0893 42.9427 48.5445L43.0766 48.1719C43.2723 47.6272 42.9894 47.0269 42.4446 46.8311Z" fill="url(#paint4_linear_539_819)"/>
</g>
<g filter="url(#filter5_i_539_819)">
<path d="M41.6497 49.045L33.7588 46.2097C33.2141 46.014 32.6138 46.2969 32.4181 46.8417L32.2842 47.2143C32.0884 47.7591 32.3714 48.3593 32.9161 48.5551L40.807 51.3903C41.3517 51.5861 41.952 51.3031 42.1477 50.7584L42.2816 50.3858C42.4774 49.841 42.1944 49.2407 41.6497 49.045Z" fill="url(#paint5_linear_539_819)"/>
</g>
<g filter="url(#filter6_i_539_819)">
<path d="M40.8069 51.3903L32.916 48.5551C32.3713 48.3593 31.771 48.6423 31.5753 49.187L31.4414 49.5596C31.2457 50.1044 31.5286 50.7047 32.0733 50.9004L39.9642 53.7357C40.509 53.9314 41.1092 53.6485 41.305 53.1037L41.4389 52.7311C41.6346 52.1863 41.3517 51.5861 40.8069 51.3903Z" fill="url(#paint6_linear_539_819)"/>
</g>
<g filter="url(#filter7_di_539_819)">
<path d="M37.0893 43.2981C36.5301 44.8543 35.5481 45.9617 34.3272 46.4115C33.5647 46.6965 32.7261 46.7037 31.9589 46.4317C31.7766 46.3664 31.6005 46.2848 31.4327 46.1881C30.8563 45.8541 30.3937 45.3546 30.105 44.7544C29.8162 44.1541 29.7146 43.4808 29.8133 42.8221C29.8793 42.2607 30.1172 41.7335 30.4944 41.3126C30.8716 40.8917 31.3696 40.5976 31.9204 40.4707C32.2725 40.3751 32.6413 40.3588 33.0004 40.4232C33.3595 40.4876 33.6998 40.631 33.9967 40.843C33.8566 40.224 33.627 39.6287 33.3149 39.076C32.6151 37.8346 31.6231 36.9658 30.6568 36.7622L30.4528 36.7236C30.8766 37.2019 31.0962 37.8271 31.0644 38.4654C31.0435 39.1019 30.8042 39.7118 30.3867 40.1927C29.9692 40.6737 29.3989 40.9963 28.7716 41.1064C28.0921 41.2437 27.386 41.1392 26.7754 40.8109C26.1648 40.4826 25.6882 39.9512 25.4281 39.3086C24.9417 38.2033 25.0224 36.3736 26.1207 35.0185C26.7752 34.2093 28.3259 32.9449 31.3282 33.5708C33.2323 33.9679 34.9978 35.3843 36.1661 37.4845C37.2942 39.5109 37.65 41.7374 37.0893 43.2981Z" fill="url(#paint7_linear_539_819)"/>
</g>
<g filter="url(#filter8_di_539_819)">
<path d="M52.7841 48.8929C52.1745 49.223 51.4686 49.3296 50.7887 49.1942C50.1088 49.0588 49.4977 48.69 49.061 48.1516C48.6468 47.6676 48.412 47.0558 48.3961 46.419C48.3801 45.7822 48.584 45.1594 48.9734 44.6553C49.3551 44.1428 49.9224 43.8002 50.5537 43.7011L50.3718 43.601C49.4955 43.1401 48.1803 43.1774 46.8489 43.6939C46.2564 43.9216 45.7004 44.2346 45.1984 44.623C45.5623 44.6484 45.9161 44.7544 46.234 44.9332C46.552 45.1121 46.8261 45.3594 47.0368 45.6573C47.3809 46.1057 47.5779 46.6495 47.6009 47.2142C47.624 47.7789 47.4719 48.337 47.1655 48.8119C46.8224 49.3829 46.3156 49.8375 45.7108 50.1167C45.106 50.396 44.4313 50.4868 43.7742 50.3776C43.5832 50.3454 43.3955 50.2962 43.2132 50.2306C42.4484 49.9521 41.8061 49.4128 41.3994 48.7077C40.7448 47.5815 40.6913 46.1046 41.2505 44.5483C41.8097 42.9921 43.5027 41.4968 45.6661 40.6555C47.9008 39.7879 50.18 39.8025 51.8886 40.7159C54.594 42.1408 54.9919 44.1053 54.9839 45.1469C54.9649 46.8873 53.8628 48.3499 52.7841 48.8929Z" fill="url(#paint8_linear_539_819)"/>
</g>
<g filter="url(#filter9_di_539_819)">
<path d="M43.065 16.8653C42.8602 16.7931 42.6646 16.697 42.4823 16.5791C41.5813 16.0079 41.0238 15.2037 40.9084 14.3332C40.8593 13.9769 40.8887 13.6141 40.9947 13.2704C41.1007 12.9267 41.2806 12.6103 41.5219 12.3435C41.8396 11.9915 42.2573 11.7448 42.719 11.6365C43.1807 11.5282 43.6645 11.5634 44.1056 11.7375C44.4827 11.8814 44.8059 12.1386 45.0308 12.4738C45.2556 12.809 45.371 13.2056 45.361 13.6091C45.3573 13.9017 45.2901 14.19 45.1639 14.454C45.2602 14.4341 45.3587 14.4077 45.4603 14.3798C45.9977 14.2384 46.4907 13.9635 46.8934 13.5806C46.7233 13.5838 46.5534 13.566 46.3877 13.5276C45.9539 13.4196 45.5702 13.1661 45.3007 12.8094C45.0311 12.4527 44.8921 12.0143 44.9067 11.5674C44.9064 11.0661 45.081 10.5804 45.4005 10.1941C45.7201 9.80786 46.1644 9.54531 46.6569 9.45168C47.1637 9.36379 47.6848 9.41385 48.1656 9.59662C48.6464 9.77939 49.0691 10.0881 49.3896 10.4905C49.8341 11.0511 50.4489 12.2744 49.5431 14.1961C48.9687 15.4227 47.7359 16.3879 46.165 16.8406C45.0324 17.1687 43.9199 17.1724 43.065 16.8653Z" fill="url(#paint9_linear_539_819)"/>
</g>
<g filter="url(#filter10_di_539_819)">
<path d="M52.8958 20.3975C52.0388 20.0896 51.1852 19.3795 50.5139 18.4032C49.5904 17.0542 49.253 15.5273 49.5914 14.2135C50.1181 12.1555 51.3708 11.6033 52.0683 11.4529C52.5719 11.3467 53.0948 11.3778 53.5824 11.543C54.0699 11.7081 54.504 12.0012 54.8394 12.3917C55.1584 12.7779 55.3332 13.2631 55.3338 13.764C55.3344 14.265 55.1608 14.7505 54.8427 15.1375C54.5688 15.4912 54.1822 15.7404 53.747 15.8439C53.3118 15.9473 52.8544 15.8987 52.4507 15.7061C52.2984 15.6302 52.1561 15.5358 52.0269 15.4251C52.0939 15.9767 52.2991 16.5026 52.6236 16.9537C52.6834 17.042 52.7434 17.1229 52.805 17.1995C52.8757 16.9156 53.0073 16.6504 53.1907 16.4224C53.4398 16.1048 53.7812 15.8723 54.168 15.7569C54.5547 15.6414 54.9678 15.6487 55.3502 15.7777C55.8012 15.9243 56.1968 16.205 56.484 16.5824C56.7712 16.9598 56.9364 17.4159 56.9574 17.8896C56.9737 18.249 56.9111 18.6075 56.7741 18.9401C56.6371 19.2726 56.4289 19.5712 56.1642 19.8147C55.5212 20.4128 54.5831 20.6746 53.5208 20.5454C53.3074 20.5207 53.0977 20.4711 52.8958 20.3975Z" fill="url(#paint10_linear_539_819)"/>
</g>
<g filter="url(#filter11_i_539_819)">
<path d="M51.7714 11.225C52.2725 11.1782 52.7426 10.9619 53.1043 10.6119C53.466 10.2619 53.6975 9.79906 53.7607 9.29975C53.8239 8.80044 53.7149 8.29451 53.4519 7.86543C53.1888 7.43636 52.7874 7.10977 52.3138 6.93958C51.8401 6.7694 51.3226 6.76579 50.8466 6.92933C50.3706 7.09286 49.9646 7.41378 49.6956 7.83913C49.4265 8.26447 49.3105 8.76883 49.3667 9.26897C49.4229 9.76912 49.6479 10.2352 50.0047 10.5902C49.9999 11.514 49.8625 12.4322 49.5966 13.3169C48.8959 15.639 47.6829 16.3837 47.1487 18.5181C46.902 19.5348 46.8593 20.5902 47.0228 21.6235L47.0404 21.6298C47.8242 20.9369 48.4629 20.0956 48.9197 19.1545C49.8661 17.1681 49.4044 15.8217 50.3419 13.5847C50.7028 12.7337 51.1843 11.939 51.7714 11.225Z" fill="url(#paint11_linear_539_819)"/>
</g>
<g filter="url(#filter12_ii_539_819)">
<path d="M87.7395 78.5731L92.4583 92.7814C92.4859 92.8644 92.4968 92.9521 92.4906 93.0393C92.4843 93.1266 92.4609 93.2117 92.4217 93.2899C92.3825 93.3681 92.3282 93.4378 92.262 93.4951C92.1959 93.5523 92.1191 93.596 92.0361 93.6236L81.5855 97.0944C81.4178 97.1501 81.2348 97.1369 81.0769 97.0577C80.919 96.9785 80.799 96.8398 80.7433 96.6722L79.3683 92.5321C79.3313 92.4255 79.3225 92.3112 79.3427 92.2002C79.3629 92.0892 79.4114 91.9853 79.4836 91.8986C79.5558 91.8118 79.6492 91.7452 79.7548 91.7053C79.8603 91.6653 79.9744 91.6533 80.0859 91.6705C80.5865 91.7612 81.1021 91.7183 81.5808 91.5462C82.0595 91.3741 82.4844 91.0787 82.8125 90.69C83.1407 90.3012 83.3605 89.8328 83.4498 89.332C83.5391 88.8312 83.4948 88.3156 83.3212 87.8374C83.0578 87.1383 82.5367 86.5667 81.8649 86.2398C81.1932 85.9129 80.4217 85.8557 79.7091 86.0798C79.2441 86.2291 78.8255 86.4957 78.4937 86.854C78.4142 86.9343 78.3153 86.9928 78.2067 87.0238C78.0981 87.0549 77.9833 87.0575 77.8733 87.0314C77.7634 87.0054 77.662 86.9515 77.5789 86.8749C77.4958 86.7984 77.4337 86.7017 77.3987 86.5943L76.0238 82.4543C75.9681 82.2866 75.9813 82.1037 76.0604 81.9457C76.1396 81.7878 76.2783 81.6678 76.446 81.6121L86.8966 78.1413C86.9803 78.1138 87.0686 78.1032 87.1564 78.1101C87.2442 78.1169 87.3298 78.1412 87.4082 78.1813C87.4866 78.2215 87.5562 78.2768 87.6131 78.344C87.67 78.4113 87.7129 78.4891 87.7395 78.5731Z" fill="url(#paint12_linear_539_819)"/>
</g>
<g filter="url(#filter13_i_539_819)">
<path d="M85.5304 53.8174C84.983 52.1694 83.2033 51.2771 81.5553 51.8244C79.9073 52.3718 79.015 54.1515 79.5623 55.7995L94.428 100.56C94.9753 102.208 96.755 103.1 98.403 102.553C100.051 102.005 100.943 100.226 100.396 98.5777L85.5304 53.8174Z" fill="url(#paint13_linear_539_819)"/>
</g>
<g filter="url(#filter14_i_539_819)">
<path d="M73.8404 47.6377C73.8234 47.6237 72.0758 46.1892 66.882 45.3299C59.5519 44.1198 55.3372 40.3707 54.36 34.1917C53.8662 31.0719 54.5279 28.1427 56.2214 25.9409C56.9536 24.9827 57.8755 24.1857 58.9294 23.5996C59.9834 23.0135 61.1468 22.6509 62.3471 22.5345C67.8879 21.9631 71.0168 24.5268 73.3466 27.1079C75.3563 29.3388 75.2162 31.5549 74.4915 32.7723C74.1569 33.3418 73.6451 33.7862 73.0343 34.0378C72.4236 34.2894 71.7473 34.3343 71.1086 34.1658C70.7203 34.0856 70.3533 33.9246 70.0312 33.6933C69.7092 33.462 69.4394 33.1656 69.2393 32.8233C69.062 32.5009 68.95 32.1468 68.9098 31.7811C68.8696 31.4154 68.9021 31.0454 69.0052 30.6922C69.0681 30.4874 69.1707 30.2969 69.3072 30.1317C69.4438 29.9665 69.6115 29.8299 69.8009 29.7296C69.9903 29.6293 70.1976 29.5674 70.411 29.5473C70.6244 29.5272 70.8396 29.5494 71.0444 29.6125C71.1174 29.6359 71.189 29.6637 71.2586 29.696C71.1565 29.5529 71.0462 29.4158 70.9284 29.2854C68.7097 26.8318 66.5511 25.3718 62.6854 25.7697C61.9263 25.8433 61.1906 26.0725 60.524 26.4429C59.8575 26.8133 59.2743 27.3171 58.811 27.9228C57.6693 29.4064 57.2339 31.4505 57.5872 33.6745C58.3414 38.4429 61.465 41.1235 67.4195 42.1082C73.6501 43.1336 75.8083 45.006 76.0349 45.2155L73.8176 47.606L73.8404 47.6377Z" fill="url(#paint14_linear_539_819)"/>
</g>
<g filter="url(#filter15_i_539_819)">
<path d="M85.5049 43.7638L85.5123 43.727L82.3054 43.138C82.3617 42.8346 82.9775 40.0409 87.3501 35.4939C91.5303 31.1434 92.4251 27.1281 90.1834 22.8537C89.1338 20.861 87.5644 19.4828 85.7619 18.977C85.0279 18.7689 84.2588 18.7142 83.5027 18.8163C82.7466 18.9184 82.0196 19.175 81.3671 19.5703C78.0314 21.5641 77.1714 24.0143 76.8651 27.3188C76.8486 27.4938 76.8422 27.6696 76.8461 27.8453C76.8833 27.7776 76.9247 27.7122 76.97 27.6496C77.2252 27.3007 77.6085 27.0674 78.0356 27.001C78.4627 26.9346 78.8987 27.0406 79.2477 27.2956C79.542 27.5165 79.7897 27.7935 79.9767 28.1104C80.1636 28.4273 80.2862 28.7781 80.3372 29.1425C80.3817 29.5365 80.3429 29.9355 80.2232 30.3135C80.1035 30.6915 79.9056 31.04 79.6425 31.3366C79.2315 31.8543 78.6624 32.2234 78.022 32.3873C77.3816 32.5513 76.7051 32.5011 76.0959 32.2445C74.7788 31.7003 73.3422 30.0128 73.6246 27.0206C73.9474 23.5585 74.9187 19.6331 79.7005 16.7762C80.7323 16.1514 81.8818 15.7459 83.0773 15.5849C84.2728 15.4238 85.4887 15.5108 86.6491 15.8404C89.3234 16.5916 91.6037 18.5437 93.0745 21.339C95.988 26.875 94.855 32.3977 89.706 37.7547C86.0398 41.5541 85.4998 43.7483 85.5049 43.7638Z" fill="url(#paint15_linear_539_819)"/>
</g>
<g filter="url(#filter16_i_539_819)">
<path d="M84.579 47.3843L76.6216 50.0271C76.0723 50.2095 75.7749 50.8028 75.9573 51.3521L76.0821 51.7279C76.2645 52.2772 76.8578 52.5746 77.4071 52.3922L85.3645 49.7494C85.9139 49.567 86.2113 48.9737 86.0288 48.4244L85.904 48.0486C85.7216 47.4993 85.1284 47.2018 84.579 47.3843Z" fill="url(#paint16_linear_539_819)"/>
</g>
<g filter="url(#filter17_i_539_819)">
<path d="M85.3202 49.6168L77.3628 52.2596C76.8135 52.442 76.5161 53.0353 76.6985 53.5846L76.8233 53.9604C77.0058 54.5097 77.599 54.8071 78.1483 54.6247L86.1057 51.9819C86.6551 51.7995 86.9525 51.2062 86.77 50.6569L86.6453 50.2811C86.4628 49.7318 85.8696 49.4343 85.3202 49.6168Z" fill="url(#paint17_linear_539_819)"/>
</g>
<g filter="url(#filter18_i_539_819)">
<path d="M86.1064 51.9819L78.149 54.6247C77.5996 54.8071 77.3022 55.4004 77.4846 55.9497L77.6094 56.3255C77.7919 56.8748 78.3851 57.1722 78.9345 56.9898L86.8919 54.347C87.4412 54.1646 87.7386 53.5713 87.5562 53.022L87.4314 52.6462C87.2489 52.0969 86.6557 51.7995 86.1064 51.9819Z" fill="url(#paint18_linear_539_819)"/>
</g>
<g filter="url(#filter19_di_539_819)">
<path d="M78.1843 47.9128C78.7055 49.4821 78.6169 50.9595 77.9344 52.0673C77.5107 52.7623 76.8555 53.2858 76.0841 53.5457C75.9004 53.6069 75.7115 53.6515 75.5198 53.6791C74.8602 53.7723 74.1879 53.665 73.5901 53.3712C72.9922 53.0774 72.4966 52.6106 72.1674 52.0314C71.8727 51.5492 71.7342 50.9876 71.771 50.4236C71.8077 49.8596 72.0179 49.3208 72.3727 48.8808C72.5906 48.5882 72.8707 48.3476 73.1929 48.1765C73.5151 48.0054 73.8713 47.9081 74.2357 47.8915C73.7433 47.4911 73.195 47.1647 72.6083 46.9227C71.2913 46.3784 69.9745 46.3077 69.0887 46.7442L68.9044 46.8398C69.5331 46.9543 70.0919 47.3105 70.4611 47.8321C70.8377 48.3457 71.0261 48.9732 70.9947 49.6093C70.9633 50.2454 70.714 50.8513 70.2886 51.3253C69.839 51.8529 69.219 52.2068 68.536 52.3256C67.853 52.4444 67.15 52.3208 66.5485 51.976C65.4834 51.407 64.4171 49.918 64.444 48.1739C64.4592 47.1332 64.8981 45.1812 67.6461 43.8194C69.3889 42.9559 71.6522 42.9798 73.8681 43.9102C76.0068 44.8074 77.6616 46.339 78.1843 47.9128Z" fill="url(#paint19_linear_539_819)"/>
</g>
<g filter="url(#filter20_di_539_819)">
<path d="M93.9849 42.6211C93.7092 43.2572 93.2198 43.777 92.6015 44.0903C91.9831 44.4037 91.2746 44.491 90.5986 44.3372C89.974 44.2123 89.4115 43.876 89.0058 43.385C88.6 42.894 88.3757 42.2783 88.3707 41.6413C88.3544 41.0025 88.5891 40.3827 89.0244 39.9149L88.8196 39.9485C87.8457 40.1272 86.8343 40.9686 86.106 42.1971C85.7806 42.742 85.5366 43.3316 85.3815 43.9471C85.6835 43.7423 86.0271 43.6072 86.3877 43.5515C86.7482 43.4959 87.1166 43.5211 87.4662 43.6253C88.0138 43.7655 88.5045 44.0716 88.8714 44.5015C89.2383 44.9315 89.4633 45.4643 89.5156 46.0271C89.5983 46.688 89.4804 47.3586 89.1771 47.9517C88.8739 48.5448 88.3993 49.033 87.815 49.3528C87.6449 49.4455 87.4668 49.5227 87.283 49.5836C86.5094 49.8368 85.6712 49.8093 84.9159 49.5059C83.7055 49.0243 82.7515 47.8956 82.2302 46.3263C81.709 44.7569 82.1173 42.5353 83.2994 40.5376C84.5213 38.4752 86.323 37.0792 88.231 36.7425C91.2388 36.1927 92.7649 37.4921 93.4018 38.3162C94.4617 39.6969 94.498 41.528 93.9849 42.6211Z" fill="url(#paint20_linear_539_819)"/>
</g>
<g filter="url(#filter21_di_539_819)">
<path d="M66.5614 23.4319C66.3557 23.5016 66.1426 23.5468 65.9264 23.5667C64.8649 23.6738 63.9298 23.3855 63.3015 22.772C63.0428 22.5221 62.842 22.2186 62.7131 21.8828C62.5841 21.547 62.5303 21.1871 62.5553 20.8283C62.5878 20.3551 62.764 19.9032 63.0603 19.5329C63.3566 19.1626 63.7589 18.8916 64.2133 18.756C64.5988 18.6363 65.0119 18.6391 65.3957 18.7639C65.7795 18.8887 66.1152 19.1294 66.3565 19.4529C66.5343 19.6854 66.6594 19.9536 66.7232 20.2392C66.7867 20.1641 66.8479 20.0825 66.9106 19.9978C67.2459 19.5547 67.4639 19.0341 67.5442 18.4842C67.4124 18.5917 67.2678 18.6826 67.1137 18.7548C66.7058 18.9377 66.2475 18.9753 65.8152 18.8612C65.3829 18.747 65.0029 18.4881 64.7384 18.1276C64.4285 17.7335 64.266 17.2436 64.2788 16.7425C64.2915 16.2413 64.4789 15.7604 64.8085 15.3827C65.1528 15.0006 65.5936 14.7181 66.0846 14.565C66.5756 14.4118 67.0988 14.3936 67.5993 14.5122C68.2952 14.6787 69.5341 15.2612 70.0084 17.3321C70.314 18.6515 69.9405 20.172 68.9845 21.4982C68.2962 22.4556 67.4234 23.1456 66.5614 23.4319Z" fill="url(#paint21_linear_539_819)"/>
</g>
<g filter="url(#filter22_di_539_819)">
<path d="M76.4759 20.1394C75.6116 20.4264 74.5017 20.395 73.3708 20.0417C71.8114 19.5509 70.6031 18.5582 70.058 17.3159C69.2013 15.372 69.8456 14.164 70.3014 13.6151C70.6319 13.2205 71.0625 12.922 71.5479 12.7509C72.0333 12.5797 72.5558 12.5422 73.0607 12.6422C73.5502 12.749 73.9873 13.0226 74.2971 13.4163C74.6069 13.8099 74.7702 14.299 74.759 14.7999C74.762 15.2471 74.6118 15.682 74.3333 16.0321C74.0549 16.3822 73.6651 16.6264 73.2286 16.7242C73.062 16.7585 72.8918 16.7722 72.7218 16.7649C73.1151 17.1575 73.6013 17.4443 74.1351 17.5987C74.2367 17.6312 74.3338 17.6579 74.4296 17.6801C74.3099 17.4131 74.2496 17.1232 74.253 16.8307C74.2529 16.427 74.3778 16.0333 74.6107 15.7037C74.8437 15.3741 75.173 15.1247 75.5535 14.99C75.9987 14.8268 76.4833 14.8033 76.9422 14.9228C77.4011 15.0423 77.8127 15.299 78.1218 15.6587C78.3565 15.9312 78.5287 16.2519 78.6263 16.5981C78.7239 16.9443 78.7445 17.3076 78.6867 17.6626C78.5503 18.5301 77.9741 19.3154 77.0588 19.8697C76.8757 19.9821 76.6801 20.0726 76.4759 20.1394Z" fill="url(#paint22_linear_539_819)"/>
</g>
<g filter="url(#filter23_i_539_819)">
<path d="M69.927 13.6191C70.2923 13.2728 70.5285 12.8124 70.5969 12.3137C70.6652 11.8151 70.5615 11.3081 70.3028 10.8763C70.0442 10.4446 69.6461 10.1139 69.1742 9.93887C68.7023 9.76383 68.1849 9.75484 67.7073 9.91347C67.2296 10.0721 66.8204 10.3889 66.547 10.8114C66.2736 11.234 66.1524 11.7371 66.2035 12.2378C66.2545 12.7385 66.4747 13.2068 66.8278 13.5655C67.1808 13.9242 67.6456 14.1518 68.1454 14.2108C68.7121 14.9403 69.1711 15.7474 69.5083 16.6074C70.3912 18.8666 69.897 20.2014 70.7948 22.2102C71.2286 23.1621 71.8467 24.0186 72.6135 24.7303L72.6312 24.7244C72.8198 23.6955 72.8027 22.6393 72.5808 21.617C72.0985 19.4702 70.904 18.6963 70.2599 16.3578C70.0183 15.4656 69.9062 14.5432 69.927 13.6191Z" fill="url(#paint23_linear_539_819)"/>
</g>
<defs>
<filter id="filter0_ii_539_819" x="8.07389" y="68.6911" width="17.8595" height="20.0317" filterUnits="userSpaceOnUse" color-interpolation-filters="sRGB">
<feFlood flood-opacity="0" result="BackgroundImageFix"/>
<feBlend mode="normal" in="SourceGraphic" in2="BackgroundImageFix" result="shape"/>
<feColorMatrix in="SourceAlpha" type="matrix" values="0 0 0 0 0 0 0 0 0 0 0 0 0 0 0 0 0 0 127 0" result="hardAlpha"/>
<feOffset dx="0.219564" dy="1.31738"/>
<feGaussianBlur stdDeviation="0.439127"/>
<feComposite in2="hardAlpha" operator="arithmetic" k2="-1" k3="1"/>
<feColorMatrix type="matrix" values="0 0 0 0 1 0 0 0 0 1 0 0 0 0 1 0 0 0 1 0"/>
<feBlend mode="normal" in2="shape" result="effect1_innerShadow_539_819"/>
<feColorMatrix in="SourceAlpha" type="matrix" values="0 0 0 0 0 0 0 0 0 0 0 0 0 0 0 0 0 0 127 0" result="hardAlpha"/>
<feOffset dx="-1.09782"/>
<feGaussianBlur stdDeviation="0.439127"/>
<feComposite in2="hardAlpha" operator="arithmetic" k2="-1" k3="1"/>
<feColorMatrix type="matrix" values="0 0 0 0 0 0 0 0 0 0 0 0 0 0 0 0 0 0 0.25 0"/>
<feBlend mode="normal" in2="effect1_innerShadow_539_819" result="effect2_innerShadow_539_819"/>
</filter>
<filter id="filter1_i_539_819" x="17.168" y="48.2701" width="22.4578" height="51.5546" filterUnits="userSpaceOnUse" color-interpolation-filters="sRGB">
<feFlood flood-opacity="0" result="BackgroundImageFix"/>
<feBlend mode="normal" in="SourceGraphic" in2="BackgroundImageFix" result="shape"/>
<feColorMatrix in="SourceAlpha" type="matrix" values="0 0 0 0 0 0 0 0 0 0 0 0 0 0 0 0 0 0 127 0" result="hardAlpha"/>
<feOffset dx="0.219564" dy="1.31738"/>
<feGaussianBlur stdDeviation="0.439127"/>
<feComposite in2="hardAlpha" operator="arithmetic" k2="-1" k3="1"/>
<feColorMatrix type="matrix" values="0 0 0 0 1 0 0 0 0 1 0 0 0 0 1 0 0 0 1 0"/>
<feBlend mode="normal" in2="shape" result="effect1_innerShadow_539_819"/>
</filter>
<filter id="filter2_i_539_819" x="25.1006" y="12.1744" width="21.2684" height="29.1027" filterUnits="userSpaceOnUse" color-interpolation-filters="sRGB">
<feFlood flood-opacity="0" result="BackgroundImageFix"/>
<feBlend mode="normal" in="SourceGraphic" in2="BackgroundImageFix" result="shape"/>
<feColorMatrix in="SourceAlpha" type="matrix" values="0 0 0 0 0 0 0 0 0 0 0 0 0 0 0 0 0 0 127 0" result="hardAlpha"/>
<feOffset dx="0.219564" dy="1.31738"/>
<feGaussianBlur stdDeviation="0.439127"/>
<feComposite in2="hardAlpha" operator="arithmetic" k2="-1" k3="1"/>
<feColorMatrix type="matrix" values="0 0 0 0 1 0 0 0 0 1 0 0 0 0 1 0 0 0 1 0"/>
<feBlend mode="normal" in2="shape" result="effect1_innerShadow_539_819"/>
</filter>
<filter id="filter3_i_539_819" x="43.2783" y="19.6218" width="22.3631" height="25.8113" filterUnits="userSpaceOnUse" color-interpolation-filters="sRGB">
<feFlood flood-opacity="0" result="BackgroundImageFix"/>
<feBlend mode="normal" in="SourceGraphic" in2="BackgroundImageFix" result="shape"/>
<feColorMatrix in="SourceAlpha" type="matrix" values="0 0 0 0 0 0 0 0 0 0 0 0 0 0 0 0 0 0 127 0" result="hardAlpha"/>
<feOffset dx="0.219564" dy="1.31738"/>
<feGaussianBlur stdDeviation="0.439127"/>
<feComposite in2="hardAlpha" operator="arithmetic" k2="-1" k3="1"/>
<feColorMatrix type="matrix" values="0 0 0 0 1 0 0 0 0 1 0 0 0 0 1 0 0 0 1 0"/>
<feBlend mode="normal" in2="shape" result="effect1_innerShadow_539_819"/>
</filter>
<filter id="filter4_i_539_819" x="33.0166" y="43.9339" width="10.3416" height="6.1829" filterUnits="userSpaceOnUse" color-interpolation-filters="sRGB">
<feFlood flood-opacity="0" result="BackgroundImageFix"/>
<feBlend mode="normal" in="SourceGraphic" in2="BackgroundImageFix" result="shape"/>
<feColorMatrix in="SourceAlpha" type="matrix" values="0 0 0 0 0 0 0 0 0 0 0 0 0 0 0 0 0 0 127 0" result="hardAlpha"/>
<feOffset dx="0.219564" dy="1.31738"/>
<feGaussianBlur stdDeviation="0.439127"/>
<feComposite in2="hardAlpha" operator="arithmetic" k2="-1" k3="1"/>
<feColorMatrix type="matrix" values="0 0 0 0 1 0 0 0 0 1 0 0 0 0 1 0 0 0 1 0"/>
<feBlend mode="normal" in2="shape" result="effect1_innerShadow_539_819"/>
</filter>
<filter id="filter5_i_539_819" x="32.2217" y="46.1477" width="10.3416" height="6.1829" filterUnits="userSpaceOnUse" color-interpolation-filters="sRGB">
<feFlood flood-opacity="0" result="BackgroundImageFix"/>
<feBlend mode="normal" in="SourceGraphic" in2="BackgroundImageFix" result="shape"/>
<feColorMatrix in="SourceAlpha" type="matrix" values="0 0 0 0 0 0 0 0 0 0 0 0 0 0 0 0 0 0 127 0" result="hardAlpha"/>
<feOffset dx="0.219564" dy="1.31738"/>
<feGaussianBlur stdDeviation="0.439127"/>
<feComposite in2="hardAlpha" operator="arithmetic" k2="-1" k3="1"/>
<feColorMatrix type="matrix" values="0 0 0 0 1 0 0 0 0 1 0 0 0 0 1 0 0 0 1 0"/>
<feBlend mode="normal" in2="shape" result="effect1_innerShadow_539_819"/>
</filter>
<filter id="filter6_i_539_819" x="31.3789" y="48.493" width="10.3416" height="6.1829" filterUnits="userSpaceOnUse" color-interpolation-filters="sRGB">
<feFlood flood-opacity="0" result="BackgroundImageFix"/>
<feBlend mode="normal" in="SourceGraphic" in2="BackgroundImageFix" result="shape"/>
<feColorMatrix in="SourceAlpha" type="matrix" values="0 0 0 0 0 0 0 0 0 0 0 0 0 0 0 0 0 0 127 0" result="hardAlpha"/>
<feOffset dx="0.219564" dy="1.31738"/>
<feGaussianBlur stdDeviation="0.439127"/>
<feComposite in2="hardAlpha" operator="arithmetic" k2="-1" k3="1"/>
<feColorMatrix type="matrix" values="0 0 0 0 1 0 0 0 0 1 0 0 0 0 1 0 0 0 1 0"/>
<feBlend mode="normal" in2="shape" result="effect1_innerShadow_539_819"/>
</filter>
<filter id="filter7_di_539_819" x="24.2653" y="33.4026" width="13.9635" height="14.9845" filterUnits="userSpaceOnUse" color-interpolation-filters="sRGB">
<feFlood flood-opacity="0" result="BackgroundImageFix"/>
<feColorMatrix in="SourceAlpha" type="matrix" values="0 0 0 0 0 0 0 0 0 0 0 0 0 0 0 0 0 0 127 0" result="hardAlpha"/>
<feOffset dy="0.878254"/>
<feGaussianBlur stdDeviation="0.439127"/>
<feComposite in2="hardAlpha" operator="out"/>
<feColorMatrix type="matrix" values="0 0 0 0 0 0 0 0 0 0 0 0 0 0 0 0 0 0 0.25 0"/>
<feBlend mode="normal" in2="BackgroundImageFix" result="effect1_dropShadow_539_819"/>
<feBlend mode="normal" in="SourceGraphic" in2="effect1_dropShadow_539_819" result="shape"/>
<feColorMatrix in="SourceAlpha" type="matrix" values="0 0 0 0 0 0 0 0 0 0 0 0 0 0 0 0 0 0 127 0" result="hardAlpha"/>
<feOffset dx="0.219564" dy="1.31738"/>
<feGaussianBlur stdDeviation="0.439127"/>
<feComposite in2="hardAlpha" operator="arithmetic" k2="-1" k3="1"/>
<feColorMatrix type="matrix" values="0 0 0 0 1 0 0 0 0 1 0 0 0 0 1 0 0 0 1 0"/>
<feBlend mode="normal" in2="shape" result="effect2_innerShadow_539_819"/>
</filter>
<filter id="filter8_di_539_819" x="39.988" y="40.0175" width="15.8747" height="12.1616" filterUnits="userSpaceOnUse" color-interpolation-filters="sRGB">
<feFlood flood-opacity="0" result="BackgroundImageFix"/>
<feColorMatrix in="SourceAlpha" type="matrix" values="0 0 0 0 0 0 0 0 0 0 0 0 0 0 0 0 0 0 127 0" result="hardAlpha"/>
<feOffset dy="0.878254"/>
<feGaussianBlur stdDeviation="0.439127"/>
<feComposite in2="hardAlpha" operator="out"/>
<feColorMatrix type="matrix" values="0 0 0 0 0 0 0 0 0 0 0 0 0 0 0 0 0 0 0.25 0"/>
<feBlend mode="normal" in2="BackgroundImageFix" result="effect1_dropShadow_539_819"/>
<feBlend mode="normal" in="SourceGraphic" in2="effect1_dropShadow_539_819" result="shape"/>
<feColorMatrix in="SourceAlpha" type="matrix" values="0 0 0 0 0 0 0 0 0 0 0 0 0 0 0 0 0 0 127 0" result="hardAlpha"/>
<feOffset dx="0.219564" dy="1.31738"/>
<feGaussianBlur stdDeviation="0.439127"/>
<feComposite in2="hardAlpha" operator="arithmetic" k2="-1" k3="1"/>
<feColorMatrix type="matrix" values="0 0 0 0 1 0 0 0 0 1 0 0 0 0 1 0 0 0 1 0"/>
<feBlend mode="normal" in2="shape" result="effect2_innerShadow_539_819"/>
</filter>
<filter id="filter9_di_539_819" x="40.0075" y="9.40952" width="10.8805" height="9.43827" filterUnits="userSpaceOnUse" color-interpolation-filters="sRGB">
<feFlood flood-opacity="0" result="BackgroundImageFix"/>
<feColorMatrix in="SourceAlpha" type="matrix" values="0 0 0 0 0 0 0 0 0 0 0 0 0 0 0 0 0 0 127 0" result="hardAlpha"/>
<feOffset dy="0.878254"/>
<feGaussianBlur stdDeviation="0.439127"/>
<feComposite in2="hardAlpha" operator="out"/>
<feColorMatrix type="matrix" values="0 0 0 0 0 0 0 0 0 0 0 0 0 0 0 0 0 0 0.25 0"/>
<feBlend mode="normal" in2="BackgroundImageFix" result="effect1_dropShadow_539_819"/>
<feBlend mode="normal" in="SourceGraphic" in2="effect1_dropShadow_539_819" result="shape"/>
<feColorMatrix in="SourceAlpha" type="matrix" values="0 0 0 0 0 0 0 0 0 0 0 0 0 0 0 0 0 0 127 0" result="hardAlpha"/>
<feOffset dx="0.219564" dy="1.31738"/>
<feGaussianBlur stdDeviation="0.439127"/>
<feComposite in2="hardAlpha" operator="arithmetic" k2="-1" k3="1"/>
<feColorMatrix type="matrix" values="0 0 0 0 1 0 0 0 0 1 0 0 0 0 1 0 0 0 1 0"/>
<feBlend mode="normal" in2="shape" result="effect2_innerShadow_539_819"/>
</filter>
<filter id="filter10_di_539_819" x="48.5846" y="11.3911" width="9.25358" height="10.943" filterUnits="userSpaceOnUse" color-interpolation-filters="sRGB">
<feFlood flood-opacity="0" result="BackgroundImageFix"/>
<feColorMatrix in="SourceAlpha" type="matrix" values="0 0 0 0 0 0 0 0 0 0 0 0 0 0 0 0 0 0 127 0" result="hardAlpha"/>
<feOffset dy="0.878254"/>
<feGaussianBlur stdDeviation="0.439127"/>
<feComposite in2="hardAlpha" operator="out"/>
<feColorMatrix type="matrix" values="0 0 0 0 0 0 0 0 0 0 0 0 0 0 0 0 0 0 0.25 0"/>
<feBlend mode="normal" in2="BackgroundImageFix" result="effect1_dropShadow_539_819"/>
<feBlend mode="normal" in="SourceGraphic" in2="effect1_dropShadow_539_819" result="shape"/>
<feColorMatrix in="SourceAlpha" type="matrix" values="0 0 0 0 0 0 0 0 0 0 0 0 0 0 0 0 0 0 127 0" result="hardAlpha"/>
<feOffset dx="0.219564" dy="1.31738"/>
<feGaussianBlur stdDeviation="0.439127"/>
<feComposite in2="hardAlpha" operator="arithmetic" k2="-1" k3="1"/>
<feColorMatrix type="matrix" values="0 0 0 0 1 0 0 0 0 1 0 0 0 0 1 0 0 0 1 0"/>
<feBlend mode="normal" in2="shape" result="effect2_innerShadow_539_819"/>
</filter>
<filter id="filter11_i_539_819" x="46.9258" y="6.80925" width="7.0721" height="15.6988" filterUnits="userSpaceOnUse" color-interpolation-filters="sRGB">
<feFlood flood-opacity="0" result="BackgroundImageFix"/>
<feBlend mode="normal" in="SourceGraphic" in2="BackgroundImageFix" result="shape"/>
<feColorMatrix in="SourceAlpha" type="matrix" values="0 0 0 0 0 0 0 0 0 0 0 0 0 0 0 0 0 0 127 0" result="hardAlpha"/>
<feOffset dx="0.219564" dy="1.31738"/>
<feGaussianBlur stdDeviation="0.439127"/>
<feComposite in2="hardAlpha" operator="arithmetic" k2="-1" k3="1"/>
<feColorMatrix type="matrix" values="0 0 0 0 1 0 0 0 0 1 0 0 0 0 1 0 0 0 1 0"/>
<feBlend mode="normal" in2="shape" result="effect1_innerShadow_539_819"/>
</filter>
<filter id="filter12_ii_539_819" x="75.112" y="78.108" width="17.5998" height="19.8986" filterUnits="userSpaceOnUse" color-interpolation-filters="sRGB">
<feFlood flood-opacity="0" result="BackgroundImageFix"/>
<feBlend mode="normal" in="SourceGraphic" in2="BackgroundImageFix" result="shape"/>
<feColorMatrix in="SourceAlpha" type="matrix" values="0 0 0 0 0 0 0 0 0 0 0 0 0 0 0 0 0 0 127 0" result="hardAlpha"/>
<feOffset dx="0.219564" dy="1.31738"/>
<feGaussianBlur stdDeviation="0.439127"/>
<feComposite in2="hardAlpha" operator="arithmetic" k2="-1" k3="1"/>
<feColorMatrix type="matrix" values="0 0 0 0 1 0 0 0 0 1 0 0 0 0 1 0 0 0 1 0"/>
<feBlend mode="normal" in2="shape" result="effect1_innerShadow_539_819"/>
<feColorMatrix in="SourceAlpha" type="matrix" values="0 0 0 0 0 0 0 0 0 0 0 0 0 0 0 0 0 0 127 0" result="hardAlpha"/>
<feOffset dx="-1.09782"/>
<feGaussianBlur stdDeviation="0.439127"/>
<feComposite in2="hardAlpha" operator="arithmetic" k2="-1" k3="1"/>
<feColorMatrix type="matrix" values="0 0 0 0 0 0 0 0 0 0 0 0 0 0 0 0 0 0 0.25 0"/>
<feBlend mode="normal" in2="effect1_innerShadow_539_819" result="effect2_innerShadow_539_819"/>
</filter>
<filter id="filter13_i_539_819" x="79.4014" y="51.6633" width="21.3748" height="51.9289" filterUnits="userSpaceOnUse" color-interpolation-filters="sRGB">
<feFlood flood-opacity="0" result="BackgroundImageFix"/>
<feBlend mode="normal" in="SourceGraphic" in2="BackgroundImageFix" result="shape"/>
<feColorMatrix in="SourceAlpha" type="matrix" values="0 0 0 0 0 0 0 0 0 0 0 0 0 0 0 0 0 0 127 0" result="hardAlpha"/>
<feOffset dx="0.219564" dy="1.31738"/>
<feGaussianBlur stdDeviation="0.439127"/>
<feComposite in2="hardAlpha" operator="arithmetic" k2="-1" k3="1"/>
<feColorMatrix type="matrix" values="0 0 0 0 1 0 0 0 0 1 0 0 0 0 1 0 0 0 1 0"/>
<feBlend mode="normal" in2="shape" result="effect1_innerShadow_539_819"/>
</filter>
<filter id="filter14_i_539_819" x="54.2002" y="22.4539" width="22.0545" height="26.062" filterUnits="userSpaceOnUse" color-interpolation-filters="sRGB">
<feFlood flood-opacity="0" result="BackgroundImageFix"/>
<feBlend mode="normal" in="SourceGraphic" in2="BackgroundImageFix" result="shape"/>
<feColorMatrix in="SourceAlpha" type="matrix" values="0 0 0 0 0 0 0 0 0 0 0 0 0 0 0 0 0 0 127 0" result="hardAlpha"/>
<feOffset dx="0.219564" dy="1.31738"/>
<feGaussianBlur stdDeviation="0.439127"/>
<feComposite in2="hardAlpha" operator="arithmetic" k2="-1" k3="1"/>
<feColorMatrix type="matrix" values="0 0 0 0 1 0 0 0 0 1 0 0 0 0 1 0 0 0 1 0"/>
<feBlend mode="normal" in2="shape" result="effect1_innerShadow_539_819"/>
</filter>
<filter id="filter15_i_539_819" x="73.5889" y="15.5063" width="21.2801" height="29.1358" filterUnits="userSpaceOnUse" color-interpolation-filters="sRGB">
<feFlood flood-opacity="0" result="BackgroundImageFix"/>
<feBlend mode="normal" in="SourceGraphic" in2="BackgroundImageFix" result="shape"/>
<feColorMatrix in="SourceAlpha" type="matrix" values="0 0 0 0 0 0 0 0 0 0 0 0 0 0 0 0 0 0 127 0" result="hardAlpha"/>
<feOffset dx="0.219564" dy="1.31738"/>
<feGaussianBlur stdDeviation="0.439127"/>
<feComposite in2="hardAlpha" operator="arithmetic" k2="-1" k3="1"/>
<feColorMatrix type="matrix" values="0 0 0 0 1 0 0 0 0 1 0 0 0 0 1 0 0 0 1 0"/>
<feBlend mode="normal" in2="shape" result="effect1_innerShadow_539_819"/>
</filter>
<filter id="filter16_i_539_819" x="75.9033" y="47.3306" width="10.3993" height="5.99357" filterUnits="userSpaceOnUse" color-interpolation-filters="sRGB">
<feFlood flood-opacity="0" result="BackgroundImageFix"/>
<feBlend mode="normal" in="SourceGraphic" in2="BackgroundImageFix" result="shape"/>
<feColorMatrix in="SourceAlpha" type="matrix" values="0 0 0 0 0 0 0 0 0 0 0 0 0 0 0 0 0 0 127 0" result="hardAlpha"/>
<feOffset dx="0.219564" dy="1.31738"/>
<feGaussianBlur stdDeviation="0.439127"/>
<feComposite in2="hardAlpha" operator="arithmetic" k2="-1" k3="1"/>
<feColorMatrix type="matrix" values="0 0 0 0 1 0 0 0 0 1 0 0 0 0 1 0 0 0 1 0"/>
<feBlend mode="normal" in2="shape" result="effect1_innerShadow_539_819"/>
</filter>
<filter id="filter17_i_539_819" x="76.6445" y="49.5631" width="10.3993" height="5.99357" filterUnits="userSpaceOnUse" color-interpolation-filters="sRGB">
<feFlood flood-opacity="0" result="BackgroundImageFix"/>
<feBlend mode="normal" in="SourceGraphic" in2="BackgroundImageFix" result="shape"/>
<feColorMatrix in="SourceAlpha" type="matrix" values="0 0 0 0 0 0 0 0 0 0 0 0 0 0 0 0 0 0 127 0" result="hardAlpha"/>
<feOffset dx="0.219564" dy="1.31738"/>
<feGaussianBlur stdDeviation="0.439127"/>
<feComposite in2="hardAlpha" operator="arithmetic" k2="-1" k3="1"/>
<feColorMatrix type="matrix" values="0 0 0 0 1 0 0 0 0 1 0 0 0 0 1 0 0 0 1 0"/>
<feBlend mode="normal" in2="shape" result="effect1_innerShadow_539_819"/>
</filter>
<filter id="filter18_i_539_819" x="77.4307" y="51.9282" width="10.3993" height="5.99357" filterUnits="userSpaceOnUse" color-interpolation-filters="sRGB">
<feFlood flood-opacity="0" result="BackgroundImageFix"/>
<feBlend mode="normal" in="SourceGraphic" in2="BackgroundImageFix" result="shape"/>
<feColorMatrix in="SourceAlpha" type="matrix" values="0 0 0 0 0 0 0 0 0 0 0 0 0 0 0 0 0 0 127 0" result="hardAlpha"/>
<feOffset dx="0.219564" dy="1.31738"/>
<feGaussianBlur stdDeviation="0.439127"/>
<feComposite in2="hardAlpha" operator="arithmetic" k2="-1" k3="1"/>
<feColorMatrix type="matrix" values="0 0 0 0 1 0 0 0 0 1 0 0 0 0 1 0 0 0 1 0"/>
<feBlend mode="normal" in2="shape" result="effect1_innerShadow_539_819"/>
</filter>
<filter id="filter19_di_539_819" x="63.5651" y="43.1914" width="15.8327" height="12.2769" filterUnits="userSpaceOnUse" color-interpolation-filters="sRGB">
<feFlood flood-opacity="0" result="BackgroundImageFix"/>
<feColorMatrix in="SourceAlpha" type="matrix" values="0 0 0 0 0 0 0 0 0 0 0 0 0 0 0 0 0 0 127 0" result="hardAlpha"/>
<feOffset dy="0.878254"/>
<feGaussianBlur stdDeviation="0.439127"/>
<feComposite in2="hardAlpha" operator="out"/>
<feColorMatrix type="matrix" values="0 0 0 0 0 0 0 0 0 0 0 0 0 0 0 0 0 0 0.25 0"/>
<feBlend mode="normal" in2="BackgroundImageFix" result="effect1_dropShadow_539_819"/>
<feBlend mode="normal" in="SourceGraphic" in2="effect1_dropShadow_539_819" result="shape"/>
<feColorMatrix in="SourceAlpha" type="matrix" values="0 0 0 0 0 0 0 0 0 0 0 0 0 0 0 0 0 0 127 0" result="hardAlpha"/>
<feOffset dx="0.219564" dy="1.31738"/>
<feGaussianBlur stdDeviation="0.439127"/>
<feComposite in2="hardAlpha" operator="arithmetic" k2="-1" k3="1"/>
<feColorMatrix type="matrix" values="0 0 0 0 1 0 0 0 0 1 0 0 0 0 1 0 0 0 1 0"/>
<feBlend mode="normal" in2="shape" result="effect2_innerShadow_539_819"/>
</filter>
<filter id="filter20_di_539_819" x="81.1296" y="36.6109" width="14.0553" height="14.9009" filterUnits="userSpaceOnUse" color-interpolation-filters="sRGB">
<feFlood flood-opacity="0" result="BackgroundImageFix"/>
<feColorMatrix in="SourceAlpha" type="matrix" values="0 0 0 0 0 0 0 0 0 0 0 0 0 0 0 0 0 0 127 0" result="hardAlpha"/>
<feOffset dy="0.878254"/>
<feGaussianBlur stdDeviation="0.439127"/>
<feComposite in2="hardAlpha" operator="out"/>
<feColorMatrix type="matrix" values="0 0 0 0 0 0 0 0 0 0 0 0 0 0 0 0 0 0 0.25 0"/>
<feBlend mode="normal" in2="BackgroundImageFix" result="effect1_dropShadow_539_819"/>
<feBlend mode="normal" in="SourceGraphic" in2="effect1_dropShadow_539_819" result="shape"/>
<feColorMatrix in="SourceAlpha" type="matrix" values="0 0 0 0 0 0 0 0 0 0 0 0 0 0 0 0 0 0 127 0" result="hardAlpha"/>
<feOffset dx="0.219564" dy="1.31738"/>
<feGaussianBlur stdDeviation="0.439127"/>
<feComposite in2="hardAlpha" operator="arithmetic" k2="-1" k3="1"/>
<feColorMatrix type="matrix" values="0 0 0 0 1 0 0 0 0 1 0 0 0 0 1 0 0 0 1 0"/>
<feBlend mode="normal" in2="shape" result="effect2_innerShadow_539_819"/>
</filter>
<filter id="filter21_di_539_819" x="61.6716" y="14.435" width="9.31901" height="10.9102" filterUnits="userSpaceOnUse" color-interpolation-filters="sRGB">
<feFlood flood-opacity="0" result="BackgroundImageFix"/>
<feColorMatrix in="SourceAlpha" type="matrix" values="0 0 0 0 0 0 0 0 0 0 0 0 0 0 0 0 0 0 127 0" result="hardAlpha"/>
<feOffset dy="0.878254"/>
<feGaussianBlur stdDeviation="0.439127"/>
<feComposite in2="hardAlpha" operator="out"/>
<feColorMatrix type="matrix" values="0 0 0 0 0 0 0 0 0 0 0 0 0 0 0 0 0 0 0.25 0"/>
<feBlend mode="normal" in2="BackgroundImageFix" result="effect1_dropShadow_539_819"/>
<feBlend mode="normal" in="SourceGraphic" in2="effect1_dropShadow_539_819" result="shape"/>
<feColorMatrix in="SourceAlpha" type="matrix" values="0 0 0 0 0 0 0 0 0 0 0 0 0 0 0 0 0 0 127 0" result="hardAlpha"/>
<feOffset dx="0.219564" dy="1.31738"/>
<feGaussianBlur stdDeviation="0.439127"/>
<feComposite in2="hardAlpha" operator="arithmetic" k2="-1" k3="1"/>
<feColorMatrix type="matrix" values="0 0 0 0 1 0 0 0 0 1 0 0 0 0 1 0 0 0 1 0"/>
<feBlend mode="normal" in2="shape" result="effect2_innerShadow_539_819"/>
</filter>
<filter id="filter22_di_539_819" x="68.7594" y="12.5875" width="10.8376" height="9.50211" filterUnits="userSpaceOnUse" color-interpolation-filters="sRGB">
<feFlood flood-opacity="0" result="BackgroundImageFix"/>
<feColorMatrix in="SourceAlpha" type="matrix" values="0 0 0 0 0 0 0 0 0 0 0 0 0 0 0 0 0 0 127 0" result="hardAlpha"/>
<feOffset dy="0.878254"/>
<feGaussianBlur stdDeviation="0.439127"/>
<feComposite in2="hardAlpha" operator="out"/>
<feColorMatrix type="matrix" values="0 0 0 0 0 0 0 0 0 0 0 0 0 0 0 0 0 0 0.25 0"/>
<feBlend mode="normal" in2="BackgroundImageFix" result="effect1_dropShadow_539_819"/>
<feBlend mode="normal" in="SourceGraphic" in2="effect1_dropShadow_539_819" result="shape"/>
<feColorMatrix in="SourceAlpha" type="matrix" values="0 0 0 0 0 0 0 0 0 0 0 0 0 0 0 0 0 0 127 0" result="hardAlpha"/>
<feOffset dx="0.219564" dy="1.31738"/>
<feGaussianBlur stdDeviation="0.439127"/>
<feComposite in2="hardAlpha" operator="arithmetic" k2="-1" k3="1"/>
<feColorMatrix type="matrix" values="0 0 0 0 1 0 0 0 0 1 0 0 0 0 1 0 0 0 1 0"/>
<feBlend mode="normal" in2="shape" result="effect2_innerShadow_539_819"/>
</filter>
<filter id="filter23_i_539_819" x="66.1924" y="9.8007" width="6.78792" height="15.8079" filterUnits="userSpaceOnUse" color-interpolation-filters="sRGB">
<feFlood flood-opacity="0" result="BackgroundImageFix"/>
<feBlend mode="normal" in="SourceGraphic" in2="BackgroundImageFix" result="shape"/>
<feColorMatrix in="SourceAlpha" type="matrix" values="0 0 0 0 0 0 0 0 0 0 0 0 0 0 0 0 0 0 127 0" result="hardAlpha"/>
<feOffset dx="0.219564" dy="1.31738"/>
<feGaussianBlur stdDeviation="0.439127"/>
<feComposite in2="hardAlpha" operator="arithmetic" k2="-1" k3="1"/>
<feColorMatrix type="matrix" values="0 0 0 0 1 0 0 0 0 1 0 0 0 0 1 0 0 0 1 0"/>
<feBlend mode="normal" in2="shape" result="effect1_innerShadow_539_819"/>
</filter>
<linearGradient id="paint0_linear_539_819" x1="11.0511" y1="67.3852" x2="11.756" y2="83.295" gradientUnits="userSpaceOnUse">
<stop stop-color="#EBE5EF"/>
<stop offset="1" stop-color="#A08EAB"/>
</linearGradient>
<linearGradient id="paint1_linear_539_819" x1="32.6823" y1="46.9256" x2="47.8786" y2="59.9153" gradientUnits="userSpaceOnUse">
<stop stop-color="#EBE5EF"/>
<stop offset="1" stop-color="#A08EAB"/>
</linearGradient>
<linearGradient id="paint2_linear_539_819" x1="24.0854" y1="7.56752" x2="25.2306" y2="34.5721" gradientUnits="userSpaceOnUse">
<stop stop-color="#EBE5EF"/>
<stop offset="1" stop-color="#A08EAB"/>
</linearGradient>
<linearGradient id="paint3_linear_539_819" x1="43.0447" y1="14.3847" x2="44.187" y2="41.386" gradientUnits="userSpaceOnUse">
<stop stop-color="#EBE5EF"/>
<stop offset="1" stop-color="#A08EAB"/>
</linearGradient>
<linearGradient id="paint4_linear_539_819" x1="30.8332" y1="42.6655" x2="30.1305" y2="45.192" gradientUnits="userSpaceOnUse">
<stop stop-color="#EBE5EF"/>
<stop offset="1" stop-color="#A08EAB"/>
</linearGradient>
<linearGradient id="paint5_linear_539_819" x1="30.0383" y1="44.8793" x2="29.3356" y2="47.4059" gradientUnits="userSpaceOnUse">
<stop stop-color="#EBE5EF"/>
<stop offset="1" stop-color="#A08EAB"/>
</linearGradient>
<linearGradient id="paint6_linear_539_819" x1="29.1955" y1="47.2247" x2="28.4928" y2="49.7512" gradientUnits="userSpaceOnUse">
<stop stop-color="#EBE5EF"/>
<stop offset="1" stop-color="#A08EAB"/>
</linearGradient>
<linearGradient id="paint7_linear_539_819" x1="23.4781" y1="30.7226" x2="22.5768" y2="42.8341" gradientUnits="userSpaceOnUse">
<stop stop-color="#EBE5EF"/>
<stop offset="1" stop-color="#A08EAB"/>
</linearGradient>
<linearGradient id="paint8_linear_539_819" x1="40.213" y1="36.4899" x2="39.3115" y2="48.6021" gradientUnits="userSpaceOnUse">
<stop stop-color="#EBE5EF"/>
<stop offset="1" stop-color="#A08EAB"/>
</linearGradient>
<linearGradient id="paint9_linear_539_819" x1="40.7881" y1="6.96732" x2="40.4609" y2="15.5769" gradientUnits="userSpaceOnUse">
<stop stop-color="#EBE5EF"/>
<stop offset="1" stop-color="#A08EAB"/>
</linearGradient>
<linearGradient id="paint10_linear_539_819" x1="48.6799" y1="9.80294" x2="48.3528" y2="18.4124" gradientUnits="userSpaceOnUse">
<stop stop-color="#EBE5EF"/>
<stop offset="1" stop-color="#A08EAB"/>
</linearGradient>
<linearGradient id="paint11_linear_539_819" x1="49.0651" y1="5.81242" x2="54.2497" y2="15.636" gradientUnits="userSpaceOnUse">
<stop stop-color="#EBE5EF"/>
<stop offset="1" stop-color="#A08EAB"/>
</linearGradient>
<linearGradient id="paint12_linear_539_819" x1="72.579" y1="82.938" x2="82.9582" y2="95.0165" gradientUnits="userSpaceOnUse">
<stop stop-color="#EBE5EF"/>
<stop offset="1" stop-color="#A08EAB"/>
</linearGradient>
<linearGradient id="paint13_linear_539_819" x1="76.9589" y1="53.4871" x2="96.933" y2="54.32" gradientUnits="userSpaceOnUse">
<stop stop-color="#EBE5EF"/>
<stop offset="1" stop-color="#A08EAB"/>
</linearGradient>
<linearGradient id="paint14_linear_539_819" x1="45.8924" y1="27.8389" x2="63.4693" y2="48.3721" gradientUnits="userSpaceOnUse">
<stop stop-color="#EBE5EF"/>
<stop offset="1" stop-color="#A08EAB"/>
</linearGradient>
<linearGradient id="paint15_linear_539_819" x1="65.0148" y1="21.4932" x2="82.5873" y2="42.0255" gradientUnits="userSpaceOnUse">
<stop stop-color="#EBE5EF"/>
<stop offset="1" stop-color="#A08EAB"/>
</linearGradient>
<linearGradient id="paint16_linear_539_819" x1="72.8737" y1="51.2782" x2="73.8812" y2="53.6994" gradientUnits="userSpaceOnUse">
<stop stop-color="#EBE5EF"/>
<stop offset="1" stop-color="#A08EAB"/>
</linearGradient>
<linearGradient id="paint17_linear_539_819" x1="73.6149" y1="53.5107" x2="74.6224" y2="55.9319" gradientUnits="userSpaceOnUse">
<stop stop-color="#EBE5EF"/>
<stop offset="1" stop-color="#A08EAB"/>
</linearGradient>
<linearGradient id="paint18_linear_539_819" x1="74.4011" y1="55.8758" x2="75.4086" y2="58.297" gradientUnits="userSpaceOnUse">
<stop stop-color="#EBE5EF"/>
<stop offset="1" stop-color="#A08EAB"/>
</linearGradient>
<linearGradient id="paint19_linear_539_819" x1="59.7127" y1="46.4269" x2="66.483" y2="56.5096" gradientUnits="userSpaceOnUse">
<stop stop-color="#EBE5EF"/>
<stop offset="1" stop-color="#A08EAB"/>
</linearGradient>
<linearGradient id="paint20_linear_539_819" x1="76.4379" y1="40.6286" x2="83.2084" y2="50.7122" gradientUnits="userSpaceOnUse">
<stop stop-color="#EBE5EF"/>
<stop offset="1" stop-color="#A08EAB"/>
</linearGradient>
<linearGradient id="paint21_linear_539_819" x1="58.6582" y1="17.0527" x2="63.7175" y2="24.0266" gradientUnits="userSpaceOnUse">
<stop stop-color="#EBE5EF"/>
<stop offset="1" stop-color="#A08EAB"/>
</linearGradient>
<linearGradient id="paint22_linear_539_819" x1="66.6173" y1="14.4097" x2="71.6766" y2="21.3834" gradientUnits="userSpaceOnUse">
<stop stop-color="#EBE5EF"/>
<stop offset="1" stop-color="#A08EAB"/>
</linearGradient>
<linearGradient id="paint23_linear_539_819" x1="64.456" y1="11.033" x2="74.6002" y2="15.5581" gradientUnits="userSpaceOnUse">
<stop stop-color="#EBE5EF"/>
<stop offset="1" stop-color="#A08EAB"/>
</linearGradient>
</defs>
</svg>
