<svg width="68" height="100" viewBox="0 0 68 100" fill="none" xmlns="http://www.w3.org/2000/svg">
<g filter="url(#filter0_ii_660_29)">
<path d="M24.2 69.1129L19.4276 82.3951C19.3997 82.4727 19.3568 82.544 19.3013 82.6051C19.2459 82.6661 19.179 82.7156 19.1044 82.7508C19.0298 82.786 18.949 82.806 18.8666 82.81C18.7842 82.8139 18.7019 82.8016 18.6243 82.7737L8.85485 79.2635C8.69812 79.2072 8.57014 79.0909 8.49914 78.9402C8.42813 78.7896 8.4199 78.6169 8.47621 78.4602L9.8668 74.59C9.90139 74.4894 9.96141 74.3995 10.041 74.3289C10.1206 74.2584 10.2171 74.2096 10.3211 74.1873C10.4251 74.1651 10.5332 74.17 10.6347 74.2018C10.7362 74.2337 10.8278 74.2912 10.9005 74.3688C11.2188 74.7275 11.6261 74.9959 12.0813 75.1469C12.5364 75.298 13.0234 75.3263 13.493 75.2291C13.9626 75.1319 14.3983 74.9125 14.756 74.5932C15.1138 74.2738 15.3811 73.8657 15.5308 73.4101C15.7424 72.7384 15.6888 72.0112 15.381 71.3778C15.0732 70.7443 14.5345 70.2528 13.8756 70.0041C13.444 69.8441 12.9784 69.7981 12.5237 69.8707C12.4181 69.8839 12.3107 69.8697 12.2121 69.8295C12.1135 69.7893 12.0268 69.7244 11.9605 69.6411C11.8942 69.5577 11.8503 69.4587 11.8333 69.3536C11.8162 69.2485 11.8265 69.1407 11.8631 69.0407L13.2536 65.1705C13.31 65.0137 13.4262 64.8858 13.5769 64.8148C13.7275 64.7438 13.9002 64.7355 14.057 64.7918L23.8264 68.3021C23.9044 68.3304 23.9761 68.374 24.0372 68.4302C24.0983 68.4864 24.1477 68.5542 24.1824 68.6296C24.2171 68.705 24.2366 68.7865 24.2396 68.8695C24.2426 68.9525 24.2292 69.0352 24.2 69.1129Z" fill="url(#paint0_linear_660_29)"/>
</g>
<g filter="url(#filter1_i_660_29)">
<path d="M36.9734 49.4713C37.527 47.9307 36.7268 46.233 35.1862 45.6795C33.6456 45.1259 31.948 45.9261 31.3944 47.4667L16.36 89.3093C15.8065 90.8499 16.6066 92.5475 18.1472 93.1011C19.6878 93.6546 21.3855 92.8545 21.939 91.3139L36.9734 49.4713Z" fill="url(#paint1_linear_660_29)"/>
</g>
<g filter="url(#filter2_i_660_29)">
<path d="M31.9031 38.0839C31.8987 38.0637 31.4379 35.9826 28.0871 32.3219C23.3564 27.1576 22.4138 21.9242 25.2863 16.7737C26.7364 14.173 28.9322 12.3863 31.4697 11.7395C32.5704 11.4553 33.7179 11.401 34.8406 11.58C35.9632 11.759 37.037 12.1674 37.9948 12.7798C42.4357 15.5817 43.2633 19.304 43.4882 22.5741C43.6796 25.3983 42.2856 26.9598 41.0397 27.4407C40.46 27.6681 39.8218 27.6997 39.2225 27.5307C38.6232 27.3617 38.0956 27.0013 37.7201 26.5046C37.4789 26.2191 37.3004 25.886 37.1963 25.5271C37.0921 25.1681 37.0646 24.7912 37.1156 24.4209C37.1717 24.0787 37.2949 23.7509 37.478 23.4563C37.6611 23.1618 37.9005 22.9063 38.1826 22.7045C38.3485 22.5892 38.5355 22.5077 38.7329 22.4647C38.9303 22.4217 39.1342 22.4181 39.333 22.454C39.5318 22.4899 39.7216 22.5646 39.8915 22.6739C40.0614 22.7832 40.208 22.925 40.3231 23.091C40.3637 23.1509 40.4005 23.2132 40.4334 23.2776C40.441 23.1121 40.439 22.9463 40.4275 22.7809C40.2108 19.6701 39.4601 17.3309 36.3622 15.3756C35.7565 14.9883 35.0776 14.7299 34.3677 14.6165C33.6579 14.5031 32.9322 14.5372 32.2361 14.7166C30.5258 15.152 29.013 16.4142 27.9803 18.2689C25.7636 22.2435 26.5192 26.0496 30.3611 30.2461C34.384 34.6335 34.8942 37.2782 34.9404 37.5654L31.9046 38.0472L31.9031 38.0839Z" fill="url(#paint2_linear_660_29)"/>
</g>
<g filter="url(#filter3_i_660_29)">
<path d="M42.8069 42.0018L42.8339 41.9788L40.7989 39.6752C41.0173 39.483 43.1003 37.77 48.9894 36.944C54.6215 36.1517 57.6225 33.6954 58.4486 29.2211C58.8304 27.1325 58.469 25.1969 57.427 23.7726C57.0038 23.191 56.4655 22.7027 55.8454 22.3383C55.2254 21.9738 54.5369 21.7409 53.823 21.6541C50.1889 21.1906 48.1249 22.5067 45.9741 24.7786C45.86 24.8987 45.753 25.0254 45.6535 25.1579C45.7205 25.1294 45.7893 25.105 45.8593 25.0849C46.2517 24.9748 46.6716 25.0249 47.027 25.2244C47.3823 25.4238 47.6439 25.7562 47.7543 26.1484C47.8438 26.4836 47.8663 26.8331 47.8204 27.1769C47.7746 27.5208 47.6612 27.8522 47.487 28.1521C47.2906 28.4702 47.0295 28.7434 46.7207 28.954C46.4119 29.1646 46.0623 29.3078 45.6945 29.3745C45.0884 29.5192 44.4516 29.4615 43.8813 29.2103C43.311 28.959 42.8386 28.528 42.5363 27.9831C41.8765 26.8129 41.7937 24.7253 43.745 22.6711C45.9997 20.2919 49.0051 17.9468 54.2137 18.6121C55.3426 18.7496 56.431 19.118 57.4112 19.6946C58.3913 20.2712 59.2422 21.0435 59.9108 21.9634C61.4564 24.0772 62.0108 26.8521 61.474 29.7809C60.4116 35.5818 56.3566 39.0172 49.4202 39.9918C44.49 40.6747 42.8121 41.9873 42.8069 42.0018Z" fill="url(#paint3_linear_660_29)"/>
</g>
<g filter="url(#filter4_i_660_29)">
<path d="M40.0131 44.1476L32.5744 41.4748C32.0608 41.2903 31.495 41.557 31.3104 42.0705L31.1842 42.4218C30.9997 42.9353 31.2664 43.5012 31.78 43.6857L39.2186 46.3585C39.7322 46.543 40.2981 46.2763 40.4826 45.7628L40.6088 45.4115C40.7933 44.898 40.5266 44.3321 40.0131 44.1476Z" fill="url(#paint4_linear_660_29)"/>
</g>
<g filter="url(#filter5_i_660_29)">
<path d="M39.2633 46.2345L31.8246 43.5617C31.3111 43.3772 30.7452 43.6439 30.5607 44.1574L30.4345 44.5087C30.2499 45.0222 30.5167 45.5881 31.0302 45.7726L38.4689 48.4454C38.9824 48.6299 39.5483 48.3632 39.7328 47.8497L39.859 47.4984C40.0435 46.9849 39.7768 46.419 39.2633 46.2345Z" fill="url(#paint5_linear_660_29)"/>
</g>
<g filter="url(#filter6_i_660_29)">
<path d="M38.4689 48.4455L31.0302 45.7727C30.5166 45.5882 29.9508 45.8549 29.7662 46.3684L29.64 46.7197C29.4555 47.2332 29.7222 47.7991 30.2358 47.9836L37.6745 50.6564C38.188 50.8409 38.7539 50.5742 38.9384 50.0607L39.0646 49.7094C39.2491 49.1959 38.9824 48.63 38.4689 48.4455Z" fill="url(#paint6_linear_660_29)"/>
</g>
<g filter="url(#filter7_di_660_29)">
<path d="M34.9643 40.817C34.4371 42.284 33.5114 43.3279 32.3605 43.752C31.6417 44.0207 30.8512 44.0274 30.1279 43.771C29.956 43.7094 29.79 43.6326 29.6318 43.5414C29.0885 43.2266 28.6524 42.7557 28.3802 42.1898C28.108 41.6239 28.0122 40.9892 28.1053 40.3682C28.1675 39.839 28.3917 39.342 28.7473 38.9452C29.1029 38.5484 29.5724 38.2713 30.0916 38.1516C30.4235 38.0614 30.7712 38.0461 31.1097 38.1068C31.4482 38.1675 31.769 38.3027 32.0489 38.5026C31.9169 37.919 31.7004 37.3578 31.4062 36.8368C30.7465 35.6665 29.8113 34.8476 28.9004 34.6556L28.7081 34.6192C29.1076 35.0701 29.3146 35.6595 29.2847 36.2612C29.2649 36.8612 29.0393 37.4362 28.6457 37.8896C28.2522 38.3429 27.7146 38.647 27.1233 38.7509C26.4827 38.8803 25.817 38.7818 25.2414 38.4723C24.6658 38.1628 24.2165 37.6618 23.9713 37.0561C23.5128 36.0141 23.5889 34.2893 24.6242 33.0118C25.2413 32.249 26.703 31.0571 29.5334 31.6471C31.3283 32.0214 32.9926 33.3567 34.094 35.3366C35.1575 37.2468 35.4929 39.3457 34.9643 40.817Z" fill="url(#paint7_linear_660_29)"/>
</g>
<g filter="url(#filter8_di_660_29)">
<path d="M49.76 46.0912C49.1853 46.4024 48.5199 46.5029 47.8789 46.3752C47.238 46.2476 46.6619 45.8999 46.2502 45.3924C45.8598 44.9361 45.6385 44.3594 45.6234 43.7591C45.6084 43.1588 45.8005 42.5716 46.1676 42.0964C46.5275 41.6133 47.0622 41.2904 47.6574 41.1969L47.4859 41.1026C46.6598 40.6681 45.42 40.7032 44.1649 41.1902C43.6064 41.4048 43.0822 41.6999 42.609 42.066C42.952 42.0899 43.2855 42.1898 43.5852 42.3584C43.885 42.5271 44.1434 42.7602 44.342 43.041C44.6664 43.4637 44.8521 43.9763 44.8738 44.5087C44.8956 45.0411 44.7522 45.5671 44.4634 46.0149C44.14 46.5531 43.6621 46.9817 43.092 47.2449C42.5219 47.5081 41.8858 47.5938 41.2664 47.4909C41.0863 47.4605 40.9093 47.4141 40.7376 47.3522C40.0165 47.0897 39.4111 46.5813 39.0277 45.9166C38.4106 44.855 38.3602 43.4627 38.8873 41.9956C39.4145 40.5285 41.0105 39.1189 43.0499 38.3259C45.1566 37.508 47.3051 37.5217 48.9158 38.3828C51.4661 39.7261 51.8413 41.578 51.8338 42.5598C51.8159 44.2005 50.7768 45.5794 49.76 46.0912Z" fill="url(#paint8_linear_660_29)"/>
</g>
<g filter="url(#filter9_di_660_29)">
<path d="M40.5976 15.8989C40.4045 15.8308 40.2202 15.7403 40.0483 15.6291C39.1989 15.0906 38.6733 14.3325 38.5646 13.5119C38.5182 13.176 38.546 12.834 38.6459 12.51C38.7458 12.186 38.9154 11.8877 39.1429 11.6362C39.4424 11.3044 39.8361 11.0718 40.2714 10.9697C40.7066 10.8676 41.1627 10.9009 41.5786 11.0649C41.9341 11.2006 42.2387 11.4431 42.4507 11.7591C42.6626 12.075 42.7714 12.449 42.762 12.8293C42.7585 13.1051 42.6951 13.3769 42.5762 13.6258C42.6669 13.6071 42.7598 13.5821 42.8556 13.5559C43.3622 13.4225 43.8269 13.1634 44.2066 12.8024C44.0462 12.8054 43.8861 12.7886 43.7299 12.7524C43.3209 12.6506 42.9592 12.4117 42.7051 12.0754C42.451 11.7391 42.32 11.3259 42.3338 10.9046C42.3334 10.432 42.498 9.97416 42.7993 9.61002C43.1005 9.24588 43.5194 8.99836 43.9836 8.91011C44.4614 8.82725 44.9526 8.87443 45.4059 9.04673C45.8591 9.21903 46.2576 9.51007 46.5597 9.88937C46.9787 10.4179 47.5583 11.571 46.7044 13.3826C46.1629 14.5389 45.0008 15.4488 43.5199 15.8756C42.4523 16.1849 41.4035 16.1884 40.5976 15.8989Z" fill="url(#paint9_linear_660_29)"/>
</g>
<g filter="url(#filter10_di_660_29)">
<path d="M49.8649 19.2287C49.057 18.9384 48.2523 18.2689 47.6194 17.3486C46.7488 16.0769 46.4308 14.6375 46.7498 13.399C47.2463 11.4589 48.4272 10.9383 49.0847 10.7966C49.5595 10.6965 50.0525 10.7258 50.5121 10.8815C50.9716 11.0372 51.3809 11.3135 51.697 11.6816C51.9978 12.0457 52.1626 12.5031 52.1632 12.9753C52.1637 13.4475 52.0001 13.9052 51.7002 14.2701C51.442 14.6035 51.0775 14.8384 50.6673 14.9359C50.257 15.0334 49.8258 14.9876 49.4452 14.806C49.3017 14.7345 49.1675 14.6455 49.0458 14.5412C49.1089 15.0612 49.3024 15.5569 49.6083 15.9822C49.6647 16.0654 49.7212 16.1417 49.7792 16.2139C49.8459 15.9462 49.97 15.6963 50.1428 15.4813C50.3777 15.182 50.6995 14.9628 51.0641 14.8539C51.4287 14.7451 51.8181 14.752 52.1786 14.8736C52.6038 15.0117 52.9767 15.2764 53.2474 15.6322C53.5182 15.9879 53.6739 16.4179 53.6937 16.8645C53.7091 17.2032 53.6501 17.5412 53.5209 17.8547C53.3917 18.1682 53.1955 18.4497 52.946 18.6792C52.3398 19.243 51.4555 19.4899 50.4541 19.368C50.2529 19.3448 50.0551 19.298 49.8649 19.2287Z" fill="url(#paint10_linear_660_29)"/>
</g>
<g filter="url(#filter11_i_660_29)">
<path d="M48.8052 10.5818C49.2776 10.5376 49.7208 10.3338 50.0618 10.0038C50.4027 9.67388 50.6209 9.23754 50.6805 8.76685C50.7401 8.29615 50.6374 7.81921 50.3894 7.41472C50.1414 7.01024 49.763 6.70236 49.3165 6.54193C48.87 6.38149 48.3821 6.3781 47.9334 6.53226C47.4847 6.68642 47.102 6.98895 46.8484 7.38992C46.5947 7.7909 46.4854 8.26635 46.5383 8.73784C46.5913 9.20932 46.8035 9.64866 47.1397 9.98335C47.1352 10.8542 47.0057 11.7198 46.7551 12.5538C46.0945 14.7429 44.951 15.4449 44.4474 17.457C44.2149 18.4154 44.1746 19.4103 44.3288 20.3844L44.3453 20.3903C45.0842 19.7372 45.6863 18.9441 46.117 18.0569C47.0091 16.1843 46.5739 14.9151 47.4576 12.8062C47.7979 12.004 48.2517 11.2549 48.8052 10.5818Z" fill="url(#paint11_linear_660_29)"/>
</g>
<defs>
<filter id="filter0_ii_660_29" x="7.56095" y="64.7548" width="16.8986" height="18.9342" filterUnits="userSpaceOnUse" color-interpolation-filters="sRGB">
<feFlood flood-opacity="0" result="BackgroundImageFix"/>
<feBlend mode="normal" in="SourceGraphic" in2="BackgroundImageFix" result="shape"/>
<feColorMatrix in="SourceAlpha" type="matrix" values="0 0 0 0 0 0 0 0 0 0 0 0 0 0 0 0 0 0 127 0" result="hardAlpha"/>
<feOffset dx="0.219564" dy="1.31738"/>
<feGaussianBlur stdDeviation="0.439127"/>
<feComposite in2="hardAlpha" operator="arithmetic" k2="-1" k3="1"/>
<feColorMatrix type="matrix" values="0 0 0 0 1 0 0 0 0 1 0 0 0 0 1 0 0 0 1 0"/>
<feBlend mode="normal" in2="shape" result="effect1_innerShadow_660_29"/>
<feColorMatrix in="SourceAlpha" type="matrix" values="0 0 0 0 0 0 0 0 0 0 0 0 0 0 0 0 0 0 127 0" result="hardAlpha"/>
<feOffset dx="-1.09782"/>
<feGaussianBlur stdDeviation="0.439127"/>
<feComposite in2="hardAlpha" operator="arithmetic" k2="-1" k3="1"/>
<feColorMatrix type="matrix" values="0 0 0 0 0 0 0 0 0 0 0 0 0 0 0 0 0 0 0.25 0"/>
<feBlend mode="normal" in2="effect1_innerShadow_660_29" result="effect2_innerShadow_660_29"/>
</filter>
<filter id="filter1_i_660_29" x="16.1846" y="45.5041" width="21.1839" height="48.6507" filterUnits="userSpaceOnUse" color-interpolation-filters="sRGB">
<feFlood flood-opacity="0" result="BackgroundImageFix"/>
<feBlend mode="normal" in="SourceGraphic" in2="BackgroundImageFix" result="shape"/>
<feColorMatrix in="SourceAlpha" type="matrix" values="0 0 0 0 0 0 0 0 0 0 0 0 0 0 0 0 0 0 127 0" result="hardAlpha"/>
<feOffset dx="0.219564" dy="1.31738"/>
<feGaussianBlur stdDeviation="0.439127"/>
<feComposite in2="hardAlpha" operator="arithmetic" k2="-1" k3="1"/>
<feColorMatrix type="matrix" values="0 0 0 0 1 0 0 0 0 1 0 0 0 0 1 0 0 0 1 0"/>
<feBlend mode="normal" in2="shape" result="effect1_innerShadow_660_29"/>
</filter>
<filter id="filter2_i_660_29" x="23.6628" y="11.4768" width="20.0626" height="27.4854" filterUnits="userSpaceOnUse" color-interpolation-filters="sRGB">
<feFlood flood-opacity="0" result="BackgroundImageFix"/>
<feBlend mode="normal" in="SourceGraphic" in2="BackgroundImageFix" result="shape"/>
<feColorMatrix in="SourceAlpha" type="matrix" values="0 0 0 0 0 0 0 0 0 0 0 0 0 0 0 0 0 0 127 0" result="hardAlpha"/>
<feOffset dx="0.219564" dy="1.31738"/>
<feGaussianBlur stdDeviation="0.439127"/>
<feComposite in2="hardAlpha" operator="arithmetic" k2="-1" k3="1"/>
<feColorMatrix type="matrix" values="0 0 0 0 1 0 0 0 0 1 0 0 0 0 1 0 0 0 1 0"/>
<feBlend mode="normal" in2="shape" result="effect1_innerShadow_660_29"/>
</filter>
<filter id="filter3_i_660_29" x="40.7988" y="18.4975" width="21.0943" height="24.3825" filterUnits="userSpaceOnUse" color-interpolation-filters="sRGB">
<feFlood flood-opacity="0" result="BackgroundImageFix"/>
<feBlend mode="normal" in="SourceGraphic" in2="BackgroundImageFix" result="shape"/>
<feColorMatrix in="SourceAlpha" type="matrix" values="0 0 0 0 0 0 0 0 0 0 0 0 0 0 0 0 0 0 127 0" result="hardAlpha"/>
<feOffset dx="0.219564" dy="1.31738"/>
<feGaussianBlur stdDeviation="0.439127"/>
<feComposite in2="hardAlpha" operator="arithmetic" k2="-1" k3="1"/>
<feColorMatrix type="matrix" values="0 0 0 0 1 0 0 0 0 1 0 0 0 0 1 0 0 0 1 0"/>
<feBlend mode="normal" in2="shape" result="effect1_innerShadow_660_29"/>
</filter>
<filter id="filter4_i_660_29" x="31.1257" y="41.4163" width="9.76107" height="5.87893" filterUnits="userSpaceOnUse" color-interpolation-filters="sRGB">
<feFlood flood-opacity="0" result="BackgroundImageFix"/>
<feBlend mode="normal" in="SourceGraphic" in2="BackgroundImageFix" result="shape"/>
<feColorMatrix in="SourceAlpha" type="matrix" values="0 0 0 0 0 0 0 0 0 0 0 0 0 0 0 0 0 0 127 0" result="hardAlpha"/>
<feOffset dx="0.219564" dy="1.31738"/>
<feGaussianBlur stdDeviation="0.439127"/>
<feComposite in2="hardAlpha" operator="arithmetic" k2="-1" k3="1"/>
<feColorMatrix type="matrix" values="0 0 0 0 1 0 0 0 0 1 0 0 0 0 1 0 0 0 1 0"/>
<feBlend mode="normal" in2="shape" result="effect1_innerShadow_660_29"/>
</filter>
<filter id="filter5_i_660_29" x="30.376" y="43.5032" width="9.76107" height="5.87893" filterUnits="userSpaceOnUse" color-interpolation-filters="sRGB">
<feFlood flood-opacity="0" result="BackgroundImageFix"/>
<feBlend mode="normal" in="SourceGraphic" in2="BackgroundImageFix" result="shape"/>
<feColorMatrix in="SourceAlpha" type="matrix" values="0 0 0 0 0 0 0 0 0 0 0 0 0 0 0 0 0 0 127 0" result="hardAlpha"/>
<feOffset dx="0.219564" dy="1.31738"/>
<feGaussianBlur stdDeviation="0.439127"/>
<feComposite in2="hardAlpha" operator="arithmetic" k2="-1" k3="1"/>
<feColorMatrix type="matrix" values="0 0 0 0 1 0 0 0 0 1 0 0 0 0 1 0 0 0 1 0"/>
<feBlend mode="normal" in2="shape" result="effect1_innerShadow_660_29"/>
</filter>
<filter id="filter6_i_660_29" x="29.5815" y="45.7142" width="9.76107" height="5.87893" filterUnits="userSpaceOnUse" color-interpolation-filters="sRGB">
<feFlood flood-opacity="0" result="BackgroundImageFix"/>
<feBlend mode="normal" in="SourceGraphic" in2="BackgroundImageFix" result="shape"/>
<feColorMatrix in="SourceAlpha" type="matrix" values="0 0 0 0 0 0 0 0 0 0 0 0 0 0 0 0 0 0 127 0" result="hardAlpha"/>
<feOffset dx="0.219564" dy="1.31738"/>
<feGaussianBlur stdDeviation="0.439127"/>
<feComposite in2="hardAlpha" operator="arithmetic" k2="-1" k3="1"/>
<feColorMatrix type="matrix" values="0 0 0 0 1 0 0 0 0 1 0 0 0 0 1 0 0 0 1 0"/>
<feBlend mode="normal" in2="shape" result="effect1_innerShadow_660_29"/>
</filter>
<filter id="filter7_di_660_29" x="22.8251" y="31.4886" width="13.2641" height="14.2265" filterUnits="userSpaceOnUse" color-interpolation-filters="sRGB">
<feFlood flood-opacity="0" result="BackgroundImageFix"/>
<feColorMatrix in="SourceAlpha" type="matrix" values="0 0 0 0 0 0 0 0 0 0 0 0 0 0 0 0 0 0 127 0" result="hardAlpha"/>
<feOffset dy="0.878254"/>
<feGaussianBlur stdDeviation="0.439127"/>
<feComposite in2="hardAlpha" operator="out"/>
<feColorMatrix type="matrix" values="0 0 0 0 0 0 0 0 0 0 0 0 0 0 0 0 0 0 0.25 0"/>
<feBlend mode="normal" in2="BackgroundImageFix" result="effect1_dropShadow_660_29"/>
<feBlend mode="normal" in="SourceGraphic" in2="effect1_dropShadow_660_29" result="shape"/>
<feColorMatrix in="SourceAlpha" type="matrix" values="0 0 0 0 0 0 0 0 0 0 0 0 0 0 0 0 0 0 127 0" result="hardAlpha"/>
<feOffset dx="0.219564" dy="1.31738"/>
<feGaussianBlur stdDeviation="0.439127"/>
<feComposite in2="hardAlpha" operator="arithmetic" k2="-1" k3="1"/>
<feColorMatrix type="matrix" values="0 0 0 0 1 0 0 0 0 1 0 0 0 0 1 0 0 0 1 0"/>
<feBlend mode="normal" in2="shape" result="effect2_innerShadow_660_29"/>
</filter>
<filter id="filter8_di_660_29" x="37.6471" y="37.7244" width="15.0651" height="11.5653" filterUnits="userSpaceOnUse" color-interpolation-filters="sRGB">
<feFlood flood-opacity="0" result="BackgroundImageFix"/>
<feColorMatrix in="SourceAlpha" type="matrix" values="0 0 0 0 0 0 0 0 0 0 0 0 0 0 0 0 0 0 127 0" result="hardAlpha"/>
<feOffset dy="0.878254"/>
<feGaussianBlur stdDeviation="0.439127"/>
<feComposite in2="hardAlpha" operator="out"/>
<feColorMatrix type="matrix" values="0 0 0 0 0 0 0 0 0 0 0 0 0 0 0 0 0 0 0.25 0"/>
<feBlend mode="normal" in2="BackgroundImageFix" result="effect1_dropShadow_660_29"/>
<feBlend mode="normal" in="SourceGraphic" in2="effect1_dropShadow_660_29" result="shape"/>
<feColorMatrix in="SourceAlpha" type="matrix" values="0 0 0 0 0 0 0 0 0 0 0 0 0 0 0 0 0 0 127 0" result="hardAlpha"/>
<feOffset dx="0.219564" dy="1.31738"/>
<feGaussianBlur stdDeviation="0.439127"/>
<feComposite in2="hardAlpha" operator="arithmetic" k2="-1" k3="1"/>
<feColorMatrix type="matrix" values="0 0 0 0 1 0 0 0 0 1 0 0 0 0 1 0 0 0 1 0"/>
<feBlend mode="normal" in2="shape" result="effect2_innerShadow_660_29"/>
</filter>
<filter id="filter9_di_660_29" x="37.6645" y="8.87036" width="10.3581" height="8.99809" filterUnits="userSpaceOnUse" color-interpolation-filters="sRGB">
<feFlood flood-opacity="0" result="BackgroundImageFix"/>
<feColorMatrix in="SourceAlpha" type="matrix" values="0 0 0 0 0 0 0 0 0 0 0 0 0 0 0 0 0 0 127 0" result="hardAlpha"/>
<feOffset dy="0.878254"/>
<feGaussianBlur stdDeviation="0.439127"/>
<feComposite in2="hardAlpha" operator="out"/>
<feColorMatrix type="matrix" values="0 0 0 0 0 0 0 0 0 0 0 0 0 0 0 0 0 0 0.25 0"/>
<feBlend mode="normal" in2="BackgroundImageFix" result="effect1_dropShadow_660_29"/>
<feBlend mode="normal" in="SourceGraphic" in2="effect1_dropShadow_660_29" result="shape"/>
<feColorMatrix in="SourceAlpha" type="matrix" values="0 0 0 0 0 0 0 0 0 0 0 0 0 0 0 0 0 0 127 0" result="hardAlpha"/>
<feOffset dx="0.219564" dy="1.31738"/>
<feGaussianBlur stdDeviation="0.439127"/>
<feComposite in2="hardAlpha" operator="arithmetic" k2="-1" k3="1"/>
<feColorMatrix type="matrix" values="0 0 0 0 1 0 0 0 0 1 0 0 0 0 1 0 0 0 1 0"/>
<feBlend mode="normal" in2="shape" result="effect2_innerShadow_660_29"/>
</filter>
<filter id="filter10_di_660_29" x="45.7504" y="10.7383" width="8.82389" height="10.4167" filterUnits="userSpaceOnUse" color-interpolation-filters="sRGB">
<feFlood flood-opacity="0" result="BackgroundImageFix"/>
<feColorMatrix in="SourceAlpha" type="matrix" values="0 0 0 0 0 0 0 0 0 0 0 0 0 0 0 0 0 0 127 0" result="hardAlpha"/>
<feOffset dy="0.878254"/>
<feGaussianBlur stdDeviation="0.439127"/>
<feComposite in2="hardAlpha" operator="out"/>
<feColorMatrix type="matrix" values="0 0 0 0 0 0 0 0 0 0 0 0 0 0 0 0 0 0 0.25 0"/>
<feBlend mode="normal" in2="BackgroundImageFix" result="effect1_dropShadow_660_29"/>
<feBlend mode="normal" in="SourceGraphic" in2="effect1_dropShadow_660_29" result="shape"/>
<feColorMatrix in="SourceAlpha" type="matrix" values="0 0 0 0 0 0 0 0 0 0 0 0 0 0 0 0 0 0 127 0" result="hardAlpha"/>
<feOffset dx="0.219564" dy="1.31738"/>
<feGaussianBlur stdDeviation="0.439127"/>
<feComposite in2="hardAlpha" operator="arithmetic" k2="-1" k3="1"/>
<feColorMatrix type="matrix" values="0 0 0 0 1 0 0 0 0 1 0 0 0 0 1 0 0 0 1 0"/>
<feBlend mode="normal" in2="shape" result="effect2_innerShadow_660_29"/>
</filter>
<filter id="filter11_i_660_29" x="44.2371" y="6.41907" width="6.67952" height="14.8495" filterUnits="userSpaceOnUse" color-interpolation-filters="sRGB">
<feFlood flood-opacity="0" result="BackgroundImageFix"/>
<feBlend mode="normal" in="SourceGraphic" in2="BackgroundImageFix" result="shape"/>
<feColorMatrix in="SourceAlpha" type="matrix" values="0 0 0 0 0 0 0 0 0 0 0 0 0 0 0 0 0 0 127 0" result="hardAlpha"/>
<feOffset dx="0.219564" dy="1.31738"/>
<feGaussianBlur stdDeviation="0.439127"/>
<feComposite in2="hardAlpha" operator="arithmetic" k2="-1" k3="1"/>
<feColorMatrix type="matrix" values="0 0 0 0 1 0 0 0 0 1 0 0 0 0 1 0 0 0 1 0"/>
<feBlend mode="normal" in2="shape" result="effect1_innerShadow_660_29"/>
</filter>
<linearGradient id="paint0_linear_660_29" x1="10.4179" y1="63.5238" x2="11.0824" y2="78.5219" gradientUnits="userSpaceOnUse">
<stop stop-color="#EBE5EF"/>
<stop offset="1" stop-color="#A08EAB"/>
</linearGradient>
<linearGradient id="paint1_linear_660_29" x1="30.8102" y1="44.2366" x2="45.1357" y2="56.4819" gradientUnits="userSpaceOnUse">
<stop stop-color="#EBE5EF"/>
<stop offset="1" stop-color="#A08EAB"/>
</linearGradient>
<linearGradient id="paint2_linear_660_29" x1="22.706" y1="7.13392" x2="23.7856" y2="32.5911" gradientUnits="userSpaceOnUse">
<stop stop-color="#EBE5EF"/>
<stop offset="1" stop-color="#A08EAB"/>
</linearGradient>
<linearGradient id="paint3_linear_660_29" x1="40.5787" y1="13.5605" x2="41.6556" y2="39.0144" gradientUnits="userSpaceOnUse">
<stop stop-color="#EBE5EF"/>
<stop offset="1" stop-color="#A08EAB"/>
</linearGradient>
<linearGradient id="paint4_linear_660_29" x1="29.0671" y1="40.2206" x2="28.4046" y2="42.6024" gradientUnits="userSpaceOnUse">
<stop stop-color="#EBE5EF"/>
<stop offset="1" stop-color="#A08EAB"/>
</linearGradient>
<linearGradient id="paint5_linear_660_29" x1="28.3173" y1="42.3075" x2="27.6549" y2="44.6893" gradientUnits="userSpaceOnUse">
<stop stop-color="#EBE5EF"/>
<stop offset="1" stop-color="#A08EAB"/>
</linearGradient>
<linearGradient id="paint6_linear_660_29" x1="27.5229" y1="44.5185" x2="26.8604" y2="46.9003" gradientUnits="userSpaceOnUse">
<stop stop-color="#EBE5EF"/>
<stop offset="1" stop-color="#A08EAB"/>
</linearGradient>
<linearGradient id="paint7_linear_660_29" x1="22.1331" y1="28.9621" x2="21.2834" y2="40.3795" gradientUnits="userSpaceOnUse">
<stop stop-color="#EBE5EF"/>
<stop offset="1" stop-color="#A08EAB"/>
</linearGradient>
<linearGradient id="paint8_linear_660_29" x1="37.9093" y1="34.3989" x2="37.0594" y2="45.8171" gradientUnits="userSpaceOnUse">
<stop stop-color="#EBE5EF"/>
<stop offset="1" stop-color="#A08EAB"/>
</linearGradient>
<linearGradient id="paint9_linear_660_29" x1="38.4512" y1="6.5681" x2="38.1427" y2="14.6843" gradientUnits="userSpaceOnUse">
<stop stop-color="#EBE5EF"/>
<stop offset="1" stop-color="#A08EAB"/>
</linearGradient>
<linearGradient id="paint10_linear_660_29" x1="45.8905" y1="9.24119" x2="45.5821" y2="17.3573" gradientUnits="userSpaceOnUse">
<stop stop-color="#EBE5EF"/>
<stop offset="1" stop-color="#A08EAB"/>
</linearGradient>
<linearGradient id="paint11_linear_660_29" x1="46.254" y1="5.47935" x2="51.1415" y2="14.74" gradientUnits="userSpaceOnUse">
<stop stop-color="#EBE5EF"/>
<stop offset="1" stop-color="#A08EAB"/>
</linearGradient>
</defs>
</svg>
