<svg width="56" height="43" viewBox="0 0 56 43" fill="none" xmlns="http://www.w3.org/2000/svg">
<g filter="url(#filter0_d_215_8)">
<path d="M22.8161 10.0159L13.2818 19.3572H46.8932C47.371 19.3572 47.8293 19.5432 48.1671 19.8742C48.505 20.2053 48.6948 20.6543 48.6948 21.1224C48.6948 21.5906 48.505 22.0395 48.1671 22.3706C47.8293 22.7016 47.371 22.8876 46.8932 22.8876H13.026L22.8161 32.4831C23.1443 32.816 23.3259 33.2619 23.3218 33.7247C23.3177 34.1876 23.1282 34.6303 22.7942 34.9576C22.4601 35.2848 22.0082 35.4705 21.5359 35.4745C21.0635 35.4785 20.6084 35.3006 20.2686 34.9791L7.52741 22.4957C7.18965 22.1647 6.99991 21.7158 6.99991 21.2477C6.99991 20.7797 7.18965 20.3308 7.52741 19.9998L20.2686 7.51641C20.6069 7.18543 21.0655 6.99967 21.5436 7C22.0217 7.00033 22.4801 7.18672 22.8179 7.51818C23.1557 7.84963 23.3453 8.299 23.345 8.76741C23.3446 9.23583 23.1544 9.68492 22.8161 10.0159Z" fill="white"/>
<path d="M14.2505 23.3876L23.1661 32.126L23.1661 32.126L23.1722 32.1321C23.5926 32.5586 23.827 33.132 23.8218 33.7292C23.8165 34.3264 23.5719 34.8956 23.1441 35.3147C22.7166 35.7336 22.1404 35.9694 21.5401 35.9745C20.9398 35.9796 20.3597 35.7536 19.9249 35.3422L19.9249 35.3423L19.9187 35.3362L7.17749 22.8529L7.17743 22.8528C6.74485 22.4289 6.49991 21.8517 6.49991 21.2477C6.49991 20.6438 6.74485 20.0666 7.17743 19.6427L7.17749 19.6426L19.9187 7.15926L19.9189 7.15902C20.3518 6.7355 20.9365 6.49958 21.544 6.5C22.1514 6.50042 22.7358 6.73715 23.1681 7.16128C23.6007 7.58574 23.8454 8.16341 23.845 8.76777C23.8445 9.37213 23.599 9.94945 23.1658 10.3733L14.5066 18.8572H46.8932C47.5004 18.8572 48.0847 19.0935 48.5171 19.5171L48.1671 19.8742L48.5171 19.5171C48.9498 19.9411 49.1948 20.5183 49.1948 21.1224C49.1948 21.7265 48.9498 22.3038 48.5171 22.7277C48.0847 23.1514 47.5004 23.3876 46.8932 23.3876H14.2505Z" stroke="white"/>
</g>
<defs>
<filter id="filter0_d_215_8" x="0" y="0" width="55.6948" height="42.4746" filterUnits="userSpaceOnUse" color-interpolation-filters="sRGB">
<feFlood flood-opacity="0" result="BackgroundImageFix"/>
<feColorMatrix in="SourceAlpha" type="matrix" values="0 0 0 0 0 0 0 0 0 0 0 0 0 0 0 0 0 0 127 0" result="hardAlpha"/>
<feOffset/>
<feGaussianBlur stdDeviation="3"/>
<feComposite in2="hardAlpha" operator="out"/>
<feColorMatrix type="matrix" values="0 0 0 0 1 0 0 0 0 1 0 0 0 0 1 0 0 0 0.77 0"/>
<feBlend mode="normal" in2="BackgroundImageFix" result="effect1_dropShadow_215_8"/>
<feBlend mode="normal" in="SourceGraphic" in2="effect1_dropShadow_215_8" result="shape"/>
</filter>
</defs>
</svg>
