<svg width="172" height="172" viewBox="0 0 172 172" fill="none" xmlns="http://www.w3.org/2000/svg">
<path opacity="0.1" d="M172 99.8678V72.0453L86.3431 85.8933L167.418 55.0761L153.511 30.9859L86.0915 85.9342L86.0402 85.942H86.0296V85.9315L141.015 18.4785L116.923 4.56859L86.0599 85.7445L99.9241 0H72.1089L85.9914 85.8671L55.0668 4.52776L30.9774 18.4364L85.9901 85.9249L85.9664 85.9157L85.9901 85.9342V85.9486H85.973L85.9625 85.9368V85.946L18.4737 30.9358L4.56476 55.0247L85.8611 85.9315L0 72.0506V99.8678L85.9585 85.9697H85.973L4.56476 116.919L18.4737 141.009L85.9625 85.9987V86.0066L85.9783 85.9882L85.9862 85.9815L85.9954 86.0053L85.9717 86.025L85.9954 86.0159L30.9826 153.504L55.0668 167.429L86.0033 86.0579L72.1075 172H99.9241L86.0481 86.1712L116.923 167.383L141.015 153.469L86.0244 86.0092L86.0691 85.9921L153.511 140.964L167.418 116.875L86.1363 85.9737L172 99.8678ZM85.9993 85.9777L86.0086 85.9658V85.975H85.998L85.9993 85.9777ZM86.0112 85.9777V85.9882H86.0046L86.0112 85.9777ZM86.0283 85.9777V85.9855L86.0178 85.9987L86.0283 85.9777ZM85.9993 85.9908H86.0112V86.0053L85.9993 85.9908ZM86.0323 85.9908V85.9829V85.9737L86.0441 85.9829L86.0323 85.9908Z" fill="url(#paint0_radial_539_847)"/>
<defs>
<radialGradient id="paint0_radial_539_847" cx="0" cy="0" r="1" gradientUnits="userSpaceOnUse" gradientTransform="translate(85.9993 85.9987) scale(86.0007 85.9987)">
<stop stop-color="white"/>
<stop offset="1" stop-color="white" stop-opacity="0"/>
</radialGradient>
</defs>
</svg>
