<svg width="50" height="79" viewBox="0 0 50 79" fill="none" xmlns="http://www.w3.org/2000/svg">
<g filter="url(#filter0_d_1771_665)">
<path d="M46 12.4668C46 7.60481 40.2746 5.00525 36.6141 8.20525L5.8747 35.0781C3.29485 37.3334 3.29485 41.3458 5.8747 43.6012L36.6141 70.474C40.2746 73.674 46 71.0744 46 66.2125V12.4668Z" fill="#8734C8"/>
</g>
<g filter="url(#filter1_i_1771_665)">
<path d="M40.6226 19.652C40.6226 16.69 37.0957 15.1475 34.9208 17.1582L13.3199 37.1289C11.8656 38.4734 11.8656 40.7719 13.3199 42.1164L34.9208 62.087C37.0957 64.0978 40.6226 62.5552 40.6226 59.5933V19.652Z" fill="#9F42E8"/>
</g>
<defs>
<filter id="filter0_d_1771_665" x="0.543715" y="3.39918" width="48.8525" height="71.8809" filterUnits="userSpaceOnUse" color-interpolation-filters="sRGB">
<feFlood flood-opacity="0" result="BackgroundImageFix"/>
<feColorMatrix in="SourceAlpha" type="matrix" values="0 0 0 0 0 0 0 0 0 0 0 0 0 0 0 0 0 0 127 0" result="hardAlpha"/>
<feOffset/>
<feGaussianBlur stdDeviation="1.69811"/>
<feComposite in2="hardAlpha" operator="out"/>
<feColorMatrix type="matrix" values="0 0 0 0 1 0 0 0 0 1 0 0 0 0 1 0 0 0 0.77 0"/>
<feBlend mode="normal" in2="BackgroundImageFix" result="effect1_dropShadow_1771_665"/>
<feBlend mode="normal" in="SourceGraphic" in2="effect1_dropShadow_1771_665" result="shape"/>
</filter>
<filter id="filter1_i_1771_665" x="12.229" y="16.249" width="28.3936" height="46.7472" filterUnits="userSpaceOnUse" color-interpolation-filters="sRGB">
<feFlood flood-opacity="0" result="BackgroundImageFix"/>
<feBlend mode="normal" in="SourceGraphic" in2="BackgroundImageFix" result="shape"/>
<feColorMatrix in="SourceAlpha" type="matrix" values="0 0 0 0 0 0 0 0 0 0 0 0 0 0 0 0 0 0 127 0" result="hardAlpha"/>
<feOffset/>
<feGaussianBlur stdDeviation="4.24528"/>
<feComposite in2="hardAlpha" operator="arithmetic" k2="-1" k3="1"/>
<feColorMatrix type="matrix" values="0 0 0 0 0.666667 0 0 0 0 0.470588 0 0 0 0 0.913725 0 0 0 1 0"/>
<feBlend mode="normal" in2="shape" result="effect1_innerShadow_1771_665"/>
</filter>
</defs>
</svg>
