<svg width="81" height="81" viewBox="0 0 81 81" fill="none" xmlns="http://www.w3.org/2000/svg">
<g filter="url(#filter0_d_638_358)">
<path d="M60.3473 74.9993H20.54C18.3253 74.9989 16.1401 74.4926 14.1508 73.5192C12.1616 72.5458 10.4209 71.131 9.06163 69.3826C7.70233 67.6342 6.76029 65.5984 6.30737 63.4306C5.85446 61.2627 5.90263 59.0201 6.4482 56.8737L14.5158 23.9398C14.6611 23.351 15.0037 22.8297 15.4866 22.4628C15.9694 22.0958 16.5634 21.9053 17.1696 21.9229H61.6211C62.2065 21.8961 62.7843 22.0638 63.2643 22.3999C63.7444 22.7359 64.0997 23.2214 64.2749 23.7806L74.3063 56.0511C74.9922 58.2429 75.1501 60.5658 74.7673 62.8303C74.3845 65.0948 73.4718 67.2367 72.1037 69.0813C70.7579 70.9337 68.9887 72.4374 66.9436 73.4669C64.8984 74.4963 62.6368 75.0218 60.3473 74.9993ZM19.16 27.2306L11.4905 58.1476C11.1489 59.5116 11.1216 60.9354 11.4104 62.3116C11.6993 63.6878 12.2968 64.9804 13.158 66.092C14.0192 67.2036 15.1215 68.1052 16.3819 68.7288C17.6422 69.3523 19.0277 69.6816 20.4338 69.6917H60.2411C61.6854 69.694 63.1096 69.3536 64.3967 68.6985C65.6838 68.0434 66.7972 67.0923 67.6453 65.9233C68.5178 64.7475 69.1 63.3822 69.3444 61.9387C69.5889 60.4951 69.4886 59.0142 69.0518 57.6168L59.7103 27.2306H19.16Z" fill="white"/>
<path d="M51.0058 43.1535C50.3019 43.1535 49.6269 42.8739 49.1292 42.3762C48.6315 41.8785 48.3519 41.2035 48.3519 40.4996V19.2691C48.3519 17.1576 47.5131 15.1326 46.0201 13.6395C44.527 12.1464 42.502 11.3076 40.3905 11.3076C38.279 11.3076 36.2539 12.1464 34.7609 13.6395C33.2678 15.1326 32.429 17.1576 32.429 19.2691V40.4996C32.429 41.2035 32.1494 41.8785 31.6517 42.3762C31.1541 42.8739 30.479 43.1535 29.7752 43.1535C29.0714 43.1535 28.3964 42.8739 27.8987 42.3762C27.401 41.8785 27.1214 41.2035 27.1214 40.4996V19.2691C27.1214 15.7499 28.5194 12.3749 31.0078 9.88643C33.4963 7.39799 36.8713 6 40.3905 6C43.9097 6 47.2847 7.39799 49.7731 9.88643C52.2616 12.3749 53.6596 15.7499 53.6596 19.2691V40.4996C53.6596 41.2035 53.38 41.8785 52.8823 42.3762C52.3846 42.8739 51.7096 43.1535 51.0058 43.1535Z" fill="white"/>
</g>
<defs>
<filter id="filter0_d_638_358" x="0" y="0" width="80.9711" height="81" filterUnits="userSpaceOnUse" color-interpolation-filters="sRGB">
<feFlood flood-opacity="0" result="BackgroundImageFix"/>
<feColorMatrix in="SourceAlpha" type="matrix" values="0 0 0 0 0 0 0 0 0 0 0 0 0 0 0 0 0 0 127 0" result="hardAlpha"/>
<feOffset/>
<feGaussianBlur stdDeviation="3"/>
<feComposite in2="hardAlpha" operator="out"/>
<feColorMatrix type="matrix" values="0 0 0 0 1 0 0 0 0 1 0 0 0 0 1 0 0 0 0.77 0"/>
<feBlend mode="normal" in2="BackgroundImageFix" result="effect1_dropShadow_638_358"/>
<feBlend mode="normal" in="SourceGraphic" in2="effect1_dropShadow_638_358" result="shape"/>
</filter>
</defs>
</svg>
